<?xml version="1.0" encoding="UTF-8" standalone="no"?>
<svg id="svg3336" height="24.0px" width="24.0px" xmlns:rdf="http://www.w3.org/1999/02/22-rdf-syntax-ns#" xmlns="http://www.w3.org/2000/svg" version="1.1" xmlns:cc="http://creativecommons.org/ns#" xmlns:dc="http://purl.org/dc/elements/1.1/" viewBox="0 0 27.0 27.0">
 <metadata id="metadata5540">
  <rdf:RDF>
   <cc:Work rdf:about="">
    <dc:format>image/svg+xml</dc:format>
    <dc:type rdf:resource="http://purl.org/dc/dcmitype/StillImage"/>
    <dc:title/>
   </cc:Work>
  </rdf:RDF>
 </metadata>
 <path id="path5288" d="m13.579 25.606c6.625 0 12-5.375 12-12 0-6.6289-5.375-12-12-12-6.6289 0-12 5.3711-12 12 0 6.625 5.3711 12 12 12z" stroke="#7f8285" stroke-width="2" fill="none"/>
 <path id="path5290" d="m16.747 11.626c0-1.9258-1.6562-3.4219-4.0703-3.4219-0.82812 0-1.4766 0.14453-1.9609 0.34375l-0.10937 2.3203c0.46875-0.17969 1.2812-0.33984 1.8555-0.33984 1.0976 0 1.7812 0.33984 1.7812 0.9375 0 0.46484-0.44922 0.59375-1.3477 0.84375-1.1172 0.30469-1.8008 0.84765-1.8008 1.7812 0 0.77344 0.55859 1.6406 1.4922 2.0156 0.16406 0 1.7656-0.26953 1.7656-0.26953-0.19922-0.19531-0.99218-0.80859-0.99218-1.0234 0.1289-0.30859 0.57812-0.45312 1.2969-0.66796 1.1523-0.37891 2.0898-1.0781 2.0898-2.5195m-2 6.8398c0-0.97266-0.68359-1.5117-1.7109-1.5117-1.0078 0-1.6914 0.53906-1.6914 1.5117 0 0.98828 0.68359 1.5312 1.6914 1.5312 1.0273 0 1.7109-0.54297 1.7109-1.5312" fill="#7f8285"/>
</svg>
