<svg xmlns:rdf="http://www.w3.org/1999/02/22-rdf-syntax-ns#" xmlns="http://www.w3.org/2000/svg" height="26.6pt" width="22.6pt" version="1.1" xmlns:cc="http://creativecommons.org/ns#" xmlns:dc="http://purl.org/dc/elements/1.1/" viewBox="0 0 22.55821 26.550222">
<g fill="#287d8f">
<path d="m20.2 1.21h-14.6c-0.344 0-0.668 0.137-0.91 0.379l-3.32 3.32c-0.242 0.238-0.379 0.57-0.379 0.91v18c0 0.711 0.578 1.29 1.29 1.29h17.9c0.711 0 1.29-0.578 1.29-1.29v-21.4c0-0.711-0.574-1.29-1.29-1.29m-1.29 21.4h-15.4v-16.2l2.57-2.57h12.8z"/>
<path d="m6.48 11.3h11.6v-2.24h-11.6z"/>
<path d="m6.48 15.7h11.6v-2.25h-11.6z"/>
<path d="m6.48 20h11.6v-2.24h-11.6z"/>
</g>
</svg>
