<?xml version="1.0" encoding="UTF-8" standalone="no"?>
<svg id="svg3336" xmlns:rdf="http://www.w3.org/1999/02/22-rdf-syntax-ns#" xmlns="http://www.w3.org/2000/svg" height="65.282pt" width="504.62pt" version="1.1" xmlns:cc="http://creativecommons.org/ns#" xmlns:dc="http://purl.org/dc/elements/1.1/" viewBox="0 0 504.61679 65.281666">
 <metadata id="metadata5540">
  <rdf:RDF>
   <cc:Work rdf:about="">
    <dc:format>image/svg+xml</dc:format>
    <dc:type rdf:resource="http://purl.org/dc/dcmitype/StillImage"/>
    <dc:title/>
   </cc:Work>
  </rdf:RDF>
 </metadata>
 <g fill="#287d8f">
  <path id="path5458" d="m152.94 33.965h17.125v-8.5625h-17.125v-12.125h19.262v-9.2773h-30.676v53.508h31.391v-9.2734h-19.977zm66.348-22.73v-7.2344h-37.098v9.2773h23.41l-24.836 36.84v7.3906h39.238v-9.2734h-25.41zm11.418 46.273h10.699v-53.508h-10.699zm64.633-46.273c-2.5195-2.3047-5.7031-4.0859-9.5586-5.3438-3.8594-1.2578-8.4102-1.8906-13.66-1.8906h-16.445v53.508h16.043c5.3047 0 9.9102-0.71094 13.82-2.1289 3.9102-1.418 7.1367-3.3594 9.6797-5.8242 2.543-2.4609 4.4336-5.3672 5.6641-8.7148 1.2344-3.3476 1.8477-6.9531 1.8477-10.809 0-3.8555-0.60156-7.375-1.8086-10.563-1.2031-3.1875-3.0625-5.9336-5.582-8.2344m-9.1172 32.559c-3.0274 3.0273-7.5664 4.4414-13.617 4.4414h-5.5156v-34.957h5.1133c6.3711 0 11.059 1.2812 14.059 4.0391 3 2.7578 4.5 7.0391 4.5 13.039 0 5.9961-1.5156 10.414-4.5391 13.438"/>
  <path id="path5460" d="m2.2463 12.815v-7.2109h2.043v6.9766c0 2.5859 0.96485 3.6211 3.1758 3.6211 2.0898 0 3.0273-1.2227 3.0273-3.4102v-7.1875h1.8828v7.0274c0 3.2148-1.5977 5.2617-4.9844 5.2617-3.5469 0-5.1445-1.9961-5.1445-5.0781"/>
  <path id="path5462" d="m16.93 5.6037h2.043l5.3359 7.3047c0.67969 0.96485 1.2188 2 1.2461 2h0.0469s-0.0937-0.9414-0.0937-1.8555v-7.4492h1.832v12.078h-1.832l-5.6641-7.7539c-0.5625-0.82422-1.082-1.7891-1.082-1.7891h-0.0234s0.0703 0.80078 0.0703 1.5508v7.9922h-1.8789z"/>
  <path id="path5464" d="m32.129 17.682h2.0234v-12.078h-2.0234z"/>
  <path id="path5466" d="m37.535 5.6037h2.1367l3.0547 7.918c0.35156 0.89453 0.70313 2.043 0.70313 2.0664h0.0508c0-0.0234 0.35156-1.1484 0.69922-2.0664l2.9414-7.918h1.9492l-4.6758 12.078h-1.9727z"/>
  <path id="path5468" d="m52.383 5.6037v12.078h7.4961v-1.6445h-5.4766v-3.875h4.7969v-1.6016h-4.7969v-3.3125h5.3594v-1.6445z"/>
  <path id="path5470" d="m63.992 5.6037h3.7812c2.8164 0 4.4414 1.1484 4.4414 3.3359 0 2.0664-1.5039 2.9844-3.3164 3.1719v0.0469c0.26172 0.1875 0.70703 0.63281 1.4336 1.6445l2.8672 3.8789h-2.3242l-2.4453-3.457c-1.1992-1.668-1.4805-1.8086-2.207-1.8086h-0.21094v5.2656h-2.0195zm3.7344 5.3086c1.6914 0 2.418-0.63281 2.418-1.8789 0-1.2695-0.79687-1.8555-2.5352-1.8555h-1.5976v3.7344z"/>
  <path id="path5472" d="m75.571 16.694 0.89453-1.4336c0.32813 0.23438 1.2227 0.98829 2.8203 0.98829 1.4336 0 2.3711-0.63672 2.3711-1.6914 0-1.2695-1.1484-1.6211-2.9141-2.4453-1.5508-0.70703-2.8672-1.5742-2.8672-3.4766 0-2.1133 1.8125-3.2656 3.9023-3.2656 1.9727 0 2.9844 0.63281 3.5 0.98437l-0.86718 1.4336c-0.44922-0.30469-1.3633-0.77344-2.5625-0.77344-1.1524 0-1.9961 0.49219-1.9961 1.5273 0 1.1484 1.0078 1.5039 2.3242 2.0898 1.6914 0.7539 3.4297 1.6211 3.4297 3.8281 0 2.1172-1.6914 3.4336-4.2969 3.4336-2.0234 0-3.2461-0.75391-3.7383-1.1992"/>
  <path id="path5474" d="m87.574 17.682h2.0234v-12.078h-2.0234z"/>
  <path id="path5476" d="m93.004 5.6037v1.668h3.6875v10.41h2.0469v-10.41h3.6875v-1.668z"/>
  <path id="path5478" d="m113.05 5.6037-3.0547 5.7344h-0.0469l-3.1055-5.7344h-2.207l4.2539 7.4961v4.582h2.0195v-4.582l4.1133-7.4961z"/>
  <path id="path5480" d="m1.5667 32.428c0-3.3164 2.3242-6.2969 6.3672-6.2969s6.3672 2.9102 6.3672 6.2226c0 3.3164-2.2812 6.3008-6.3242 6.3008-4.0391 0-6.4102-2.9141-6.4102-6.2266m10.598 0c0-2.4922-1.3867-4.6562-4.1875-4.6562-2.793 0-4.25 2.1406-4.25 4.582 0 2.4922 1.4102 4.6289 4.207 4.6289 2.7969 0 4.2305-2.0898 4.2305-4.5547"/>
  <path id="path5482" d="m17.871 26.365h7.2578v1.6406h-5.2383v3.4336h4.6289v1.6172h-4.6289v5.3828h-2.0195z"/>
  <path id="path5484" d="m1.5667 53.139c0-3.3555 2.3008-6.2461 6.3906-6.2461 1.6211 0 2.6992 0.35156 3.6406 0.96093l-0.96094 1.5039c-0.70703-0.47266-1.5547-0.77734-2.7266-0.77734-2.75 0-4.1836 1.9062-4.1836 4.4883 0 2.6562 1.3633 4.6562 4.2305 4.6562 1.3633 0 2.2773-0.44922 2.9844-0.96485l0.84375 1.4297c-0.65625 0.56641-2.0664 1.2266-3.8984 1.2266-4.1133 0-6.3203-2.9141-6.3203-6.2773"/>
  <path id="path5486" d="m18.528 47.127h1.9766l4.9102 12.078h-2.1133l-1.0352-2.6328h-5.6172l-0.98438 2.6328h-2zm3.125 7.8008-1.4336-3.6875c-0.39844-1.0586-0.75-2.1875-0.75-2.1875h-0.0469s-0.375 1.1758-0.7539 2.1875l-1.4102 3.6875z"/>
  <path id="path5488" d="m28.371 47.127v12.078h7.168v-1.6484h-5.0976v-10.43z"/>
  <path id="path5490" d="m38.992 59.205h2.0195v-12.078h-2.0195z"/>
  <path id="path5492" d="m45.496 47.127v12.078h2.0234v-5.3828h4.6289v-1.6211h-4.6289v-3.4297h5.2383v-1.6445z"/>
  <path id="path5494" d="m55.367 53.186c0-3.3086 2.3242-6.293 6.3672-6.293s6.3672 2.9141 6.3672 6.2226c0 3.3164-2.2773 6.3008-6.3203 6.3008s-6.4141-2.9141-6.4141-6.2305m10.598 0c0-2.4883-1.3867-4.6524-4.1836-4.6524s-4.2539 2.1406-4.2539 4.582c0 2.4922 1.4141 4.6289 4.207 4.6289 2.7969 0 4.2305-2.0898 4.2305-4.5586"/>
  <path id="path5496" d="m71.129 47.127h3.7852c2.8203 0 4.4414 1.1524 4.4414 3.3359 0 2.0664-1.5039 2.9844-3.3125 3.1719v0.0469c0.25781 0.1875 0.70312 0.63672 1.4336 1.6445l2.8633 3.8789h-2.3242l-2.4453-3.457c-1.1953-1.668-1.4805-1.8086-2.207-1.8086h-0.21094v5.2656h-2.0234zm3.7383 5.3086c1.6953 0 2.4219-0.63282 2.4219-1.8789 0-1.2695-0.80078-1.8555-2.5391-1.8555h-1.5977v3.7344z"/>
  <path id="path5498" d="m83.301 47.127h2.043l5.3359 7.3086c0.67968 0.96093 1.2226 1.9961 1.2461 1.9961h0.0469s-0.0937-0.94141-0.0937-1.8555v-7.4492h1.832v12.078h-1.832l-5.6641-7.7539c-0.5625-0.82422-1.082-1.7891-1.082-1.7891h-0.0234s0.0703 0.80078 0.0703 1.5508v7.9922h-1.8789z"/>
  <path id="path5500" d="m98.172 59.205h2.0234v-12.078h-2.0234z"/>
  <path id="path5502" d="m108.16 47.127h1.9726l4.9102 12.078h-2.1172l-1.0312-2.6328h-5.6172l-0.98828 2.6328h-1.9961zm3.125 7.8008-1.4336-3.6875c-0.40234-1.0586-0.7539-2.1875-0.7539-2.1875h-0.0469s-0.375 1.1758-0.75391 2.1875l-1.4102 3.6875z"/>
 </g>
 <g fill="#353333">
  <path id="path5504" d="m340.79 7.1834h3.4843c5.0274 0 7.6563 2.2852 7.6563 6.5156 0 4.6875-2.5117 6.9141-7.711 6.9141h-3.4296zm-11.031-3.3164v2.5156h0.9727c2.914 0 3.7148 1.1992 3.7148 4.3438v21.316c0 3.1406-0.8008 4.3438-3.7148 4.3438h-0.9727v2.5117c2.6289-0.11329 5.2031-0.11329 7.832-0.11329 2.625 0 5.2539 0 7.8829 0.11329v-2.5117h-0.9102c-2.9727 0-3.7734-1.1445-3.7734-4.3438v-8.3438h4.6836c8.5156 0 12.633-2.9727 12.633-9.8867 0-6.8594-4.4571-9.9453-13.66-9.9453z"/>
  <path id="path5506" d="m366.26 10.965c2.0117 0 3.9805-0.043 5.9453-0.0898v2.0117h-0.7773c-2.5156 0-2.9727 0.86718-2.9727 3.4726v12.391c0 5.2109 1.5977 7.5898 6.4922 7.5898 4.8008 0 6.4453-2.3789 6.4453-7.5v-12.34c0-2.6992-0.5039-3.6133-3.1523-3.6133h-0.7344v-2.0117c1.9649 0.0469 3.8399 0.0898 5.7149 0.0898 1.8281 0 3.6562-0.043 5.4414-0.0898v2.0117h-0.8243c-1.9648 0-2.5156 1.0508-2.5156 3.4726v12.207c0 7.5898-3.1055 10.973-10.832 10.973-7.2695 0-11.062-3.5195-11.062-10.332v-12.848c0-2.375-0.5039-3.4726-2.5156-3.4726h-0.7344v-2.0117c2.0586 0.0469 4.0703 0.0898 6.082 0.0898"/>
  <path id="path5508" d="m400.04 13.574h2.9258c4.2968 0 6.2187 1.5547 6.2187 5.2539 0 3.5664-2.2422 4.9375-6.8594 4.9375h-2.2851zm-8.8242-2.6992v2.0117h0.7343c2.3282 0 3.0157 0.95703 3.0157 3.4766v17.051c0 2.5586-0.6407 3.4727-3.0157 3.4727h-0.7343v2.0117c2.1054-0.0899 4.1601-0.0899 6.2617-0.0899 2.1054 0 4.207 0 6.3125 0.0899v-2.0117h-0.7774c-2.332 0-2.9726-0.91407-2.9726-3.4727v-7.2227h2.5586c3.7968 0 4.664 1.0938 5.7148 4.1133 0.5039 1.5078 0.7774 4.5742 2.2852 8.5938h7.5468v-2.0117h-0.4609c-2.3281 0-3.1055-1.3711-3.8828-4.5234-1.0977-4.3906-1.3711-6.9062-4.8906-7.5 3.289-0.86719 5.1172-3.2891 5.1172-6.5352 0-5.3047-3.5665-7.4531-11.062-7.4531z"/>
  <path id="path5510" d="m428.57 13.527h3.1992c7.7266 0 11.383 3.3828 11.383 10.969 0 8.0039-3.5664 11.707-11.152 11.707h-3.4297zm-8.8242-2.6523v2.0117h0.7305c2.332 0 3.0156 0.96093 3.0156 3.4726v17.055c0 2.5156-0.6836 3.4766-3.0156 3.4766h-0.7305v2.0078h13.394c10.379 0 15.453-4.6641 15.453-14.355 0-9.2774-5.3008-13.668-16.184-13.668z"/>
  <path id="path5512" d="m455.78 10.965c2.0117 0 3.9805-0.043 5.9453-0.0898v2.0117h-0.7773c-2.5157 0-2.9727 0.86718-2.9727 3.4726v12.391c0 5.2109 1.5977 7.5898 6.4922 7.5898 4.8008 0 6.4453-2.3789 6.4453-7.5v-12.34c0-2.6992-0.5039-3.6133-3.1523-3.6133h-0.7344v-2.0117c1.9687 0.0469 3.8437 0.0898 5.7187 0.0898 1.8243 0 3.6524-0.043 5.4375-0.0898v2.0117h-0.8203c-1.9687 0-2.5195 1.0508-2.5195 3.4726v12.207c0 7.5898-3.1055 10.973-10.832 10.973-7.2696 0-11.062-3.5195-11.062-10.332v-12.848c0-2.375-0.504-3.4726-2.5157-3.4726h-0.7344v-2.0117c2.0586 0.0469 4.0704 0.0898 6.0821 0.0898"/>
  <path id="path5514" d="m503.14 11.012v7.3164h-2.332v-0.73437c0-3.5664-1.0079-3.8398-4.6641-3.8398h-6.625v9.4648h2.1484c3.4727 0 4.25-0.23047 4.25-3.75h2.1016v9.9648h-2.0547c-0.047-3.4258-0.8711-3.7461-4.207-3.7461h-2.2383v10.422h6.4453c4.2969 0 5.0273-0.54687 5.0703-5.5781h2.2891v8.3672h-22.812v-2.0078h0.9609c2.4219 0 2.9688-0.96093 2.9688-3.4766v-17.055c0-2.5117-0.5899-3.4726-2.9688-3.4726h-0.7773v-1.875z"/>
 </g>
 <g fill="#c5992b">
  <path id="path5516" d="m333.02 49.035c0.6719 0 1.3438-0.0156 1.9883-0.0273v0.78906h-0.1797c-0.8203 0-0.9726 0.30078-0.9726 1.1641v4.0195c0 1.4297 0.4648 2.1055 1.8672 2.1055 1.3593 0 1.9257-0.6875 1.9257-2.1367v-3.9883c0-0.82032-0.1953-1.1641-0.9531-1.1641h-0.1797v-0.78906c0.6406 0.0117 1.2539 0.0273 1.8672 0.0273 0.625 0 1.2227-0.0156 1.8203-0.0273v0.78906h-0.2226c-0.5391 0-0.75 0.375-0.75 1.1641v3.8516c0 2.4492-1.0274 3.5547-3.6563 3.5547-2.4648 0-3.6758-1.0586-3.6758-3.1797v-4.2266c0-0.77735-0.1328-1.1641-0.7304-1.1641h-0.1797v-0.78906c0.6875 0.0117 1.375 0.0273 2.0312 0.0273"/>
  <path id="path5518" d="m354.34 49.008 3.5118 7.4922-0.047-5.5391c0-0.82032-0.1797-1.1641-0.9532-1.1641h-0.1797v-0.78906c0.6407 0.0156 1.2657 0.0273 1.9102 0.0273 0.6563 0 1.3008-0.0117 1.957-0.0273v0.78906h-0.1797c-0.7617 0-0.957 0.34375-0.957 1.1641v7.1992h-2.539l-3.5079-7.4648 0.027 5.4922c0 0.82422 0.1836 1.1797 0.9571 1.1797h0.1797v0.79296c-0.6407-0.0312-1.2852-0.0312-1.9258-0.0312s-1.2852 0-1.9414 0.0312v-0.79296h0.1797c0.7617 0 0.9687-0.35547 0.9687-1.1797v-5.2266c0-0.82032-0.207-1.1641-0.9687-1.1641h-0.1797v-0.78906z"/>
  <path id="path5520" d="m373.3 49.035c0.7031 0 1.418-0.0156 2.1367-0.0273v0.78906h-0.1953c-0.7617 0-0.957 0.34375-0.957 1.1641v5.2266c0 0.82422 0.1953 1.1797 0.957 1.1797h0.1953v0.79296c-0.7187-0.0312-1.4336-0.0312-2.1367-0.0312-0.7149 0-1.4336 0-2.1484 0.0312v-0.79296h0.1757c0.7657 0 0.9571-0.35547 0.9571-1.1797v-5.2266c0-0.82032-0.1914-1.1641-0.9571-1.1641h-0.1757v-0.78906c0.7148 0.0117 1.4335 0.0273 2.1484 0.0273"/>
  <path id="path5522" d="m387.37 49.035c0.6445 0 1.3906-0.0156 2.2109-0.0273v0.78906c-0.7617 0.0312-1.0781 0.0742-1.0781 0.49219 0 0.10547 0.035 0.23828 0.094 0.40625l2.0156 5.8359 1.9258-5.8086c0.043-0.14843 0.059-0.28515 0.059-0.38671 0-0.39063-0.3437-0.53907-1.0742-0.53907v-0.78906c0.7148 0.0117 1.375 0.0273 2 0.0273 0.6133 0 1.1953-0.0156 1.7305-0.0273v0.78906c-0.5352 0.10547-0.7579 0.38672-0.9532 0.95703l-2.6875 7.5547h-2.164l-2.7813-7.4961c-0.2344-0.65625-0.4453-0.96875-0.9531-1.0156v-0.78906c0.4648 0.0117 1.0156 0.0273 1.6562 0.0273"/>
  <path id="path5524" d="m412.95 49.035v2.5234h-0.8515v-0.40234c0-0.86719-0.4922-1.0469-1.5977-1.0469h-1.8359v2.8516h0.5195c0.9883 0 1.2422-0.17969 1.2578-1.1914h0.8047v3.3125h-0.8047c-0.047-0.98438-0.2695-1.1641-1.1953-1.1641h-0.582v3.168h1.6718c1.4922 0 1.8204-0.19532 1.8516-1.793h0.8359v2.8672h-7.496v-0.79296h0.1796c0.8047 0 0.9532-0.38672 0.9532-1.1797v-5.2266c0-0.82032-0.1914-1.1641-0.9532-1.1641h-0.1796v-0.76172z"/>
  <path id="path5526" d="m426.96 50.113h0.7618c1.2539 0 1.8203 0.41406 1.8203 1.5508 0 1.0898-0.5977 1.4766-1.8946 1.4766h-0.6875zm-3.1367-1.1055v0.78906h0.1797c0.7617 0 0.9531 0.34375 0.9531 1.1641v5.2305c0 0.82032-0.1914 1.1758-0.9531 1.1758h-0.1797v0.79296c0.7188-0.0312 1.4336-0.0312 2.1485-0.0312 0.707 0 1.4218 0 2.1406 0.0312v-0.79296h-0.1953c-0.7617 0-0.9571-0.35547-0.9571-1.1758v-2.0781h0.7188c0.8203 0 1.2812 0.23828 1.4922 0.83594 0.2851 0.79297 0.3281 1.9414 0.8789 3.2109h2.75v-0.79296h-0.074c-0.418 0-0.7305-0.11719-0.957-0.38672-0.2696-0.3125-0.375-0.98438-0.6133-1.9141-0.25-0.9375-0.461-1.3711-1.3125-1.4922 1.0429-0.25 1.6133-0.98438 1.6133-2.1016 0-1.8086-1.2266-2.4648-3.8399-2.4648z"/>
  <path id="path5528" d="m449.9 51.738h-1.1523c0.016-0.10547 0.016-0.21094 0.016-0.30078 0-1.1328-0.5664-1.6406-1.8047-1.6406-1.0781 0-1.7461 0.55078-1.7461 1.3438 0 0.64453 0.3594 1 1.1484 1.3164l1.8946 0.76172c1.3008 0.52344 1.9414 1.3125 1.9414 2.418 0 1.7305-1.2969 2.7305-3.7149 2.7305-1.0625 0-2.1679-0.13282-3.289-0.38672v-2.582h1.0937c0 0.0742-0.016 0.14843-0.016 0.20703 0 1.1797 0.7149 1.7773 2.1055 1.7773 1.1211 0 1.7305-0.49219 1.7305-1.3906 0-0.64063-0.3125-0.96875-1.0469-1.2812l-1.7461-0.75c-1.4453-0.625-2.1641-1.2969-2.1641-2.4883 0-1.6445 1.2813-2.6758 3.6329-2.6758 0.9531 0 2 0.14844 3.1171 0.41797z"/>
  <path id="path5530" d="m463.13 49.035c0.7031 0 1.4179-0.0156 2.1367-0.0273v0.78906h-0.1953c-0.7618 0-0.9571 0.34375-0.9571 1.1641v5.2266c0 0.82422 0.1953 1.1797 0.9571 1.1797h0.1953v0.79296c-0.7188-0.0312-1.4336-0.0312-2.1367-0.0312-0.7149 0-1.4336 0-2.1524 0.0312v-0.79296h0.1836c0.7578 0 0.9531-0.35547 0.9531-1.1797v-5.2266c0-0.82032-0.1953-1.1641-0.9531-1.1641h-0.1836v-0.78906c0.7188 0.0117 1.4375 0.0273 2.1524 0.0273"/>
  <path id="path5532" d="m478.59 49.035h2.5234c0.3125 0 1.2696-0.0273 2.8672-0.0273v2.7617h-0.9883v-0.24219c0-1.1797-0.3281-1.418-1.4336-1.418h-0.6562v6.0781c0 0.82422 0.1953 1.1797 0.957 1.1797h0.3125v0.79296c-0.7617-0.0312-1.5234-0.0312-2.2695-0.0312-0.7617 0-1.5234 0-2.2852 0.0312v-0.79296h0.3125c0.7657 0 0.9571-0.35547 0.9571-1.1797v-6.0781h-0.8047c-1.0039 0-1.3477 0.26953-1.3477 1.2734 0 0.11719 0 0.23438 0.02 0.38672h-0.9415v-2.7617c1.5508 0 2.4766 0.0273 2.7774 0.0273"/>
  <path id="path5534" d="m496.01 49.035c0.6406 0 1.3125-0.0156 1.9843-0.0273v0.78906h-0.074c-0.4765 0-0.6875 0.13672-0.6875 0.4336 0 0.14843 0.074 0.32812 0.1797 0.53515l1.1641 2.3633 1.164-2.2852c0.1055-0.21094 0.168-0.42188 0.168-0.57031 0-0.33985-0.2266-0.47657-0.7344-0.47657v-0.78906c0.6446 0.0117 1.2578 0.0273 1.8672 0.0273 0.5977 0 1.1953-0.0156 1.7774-0.0273v0.78906h-0.059c-0.4805 0-0.7617 0.34375-1.1641 1l-2.2266 3.6445v1.8516c0 0.79297 0.1485 1.0742 1.0157 1.0742h0.207v0.79296c-0.6992-0.0312-1.418-0.0312-2.1484-0.0312-0.7188 0-1.4493 0-2.1797 0.0312v-0.79296h0.2109c0.8477 0 1.0117-0.28125 1.0117-1.0742v-1.8828l-2.0898-3.6289c-0.3555-0.60938-0.6563-0.95313-1.2695-0.98438v-0.78906c0.6132 0.0117 1.2421 0.0273 1.8828 0.0273"/>
  <path id="path5536" d="m329.98 44.297h173.39v-1.6445h-173.39z"/>
 </g>
</svg>
