<?xml version="1.0" encoding="utf-8"?>
<!-- Generator: Adobe Illustrator 16.0.0, SVG Export Plug-In . SVG Version: 6.00 Build 0)  -->
<!DOCTYPE svg PUBLIC "-//W3C//DTD SVG 1.1//EN" "http://www.w3.org/Graphics/SVG/1.1/DTD/svg11.dtd">
<svg version="1.1" id="Layer_1" xmlns="http://www.w3.org/2000/svg" xmlns:xlink="http://www.w3.org/1999/xlink" x="0px" y="0px"
	 width="453.999px" height="62.234px" viewBox="0 0 453.999 62.234" enable-background="new 0 0 453.999 62.234"
	 xml:space="preserve">
<path fill="#05788C" d="M451.322,41.105l-4.687,10.139c-0.162,0.365-0.304,0.691-0.426,1.056c-0.122,0.365-0.233,0.935-0.336,0.935
	h-0.06c-0.041,0-0.086-0.623-0.137-0.979c-0.052-0.355-0.106-0.617-0.168-1.003l-1.796-10.147h-2.646l2.952,14.978
	c-0.467,0.792-0.889,1.387-1.265,1.903c-0.375,0.519-0.744,0.899-1.109,1.203c-0.365,0.306-0.726,0.504-1.08,0.625
	c-0.355,0.123-0.736,0.176-1.142,0.176c-0.467,0-0.842-0.039-1.126-0.11c-0.283-0.071-0.496-0.149-0.64-0.231l-1.004,2.069
	c0.142,0.081,0.407,0.187,0.792,0.32c0.385,0.131,0.973,0.196,1.765,0.196c0.993,0,1.871-0.188,2.633-0.562
	c0.761-0.376,1.479-0.954,2.159-1.734c0.68-0.781,1.355-1.775,2.024-2.983c0.67-1.207,1.41-2.534,2.221-4.218l5.751-11.631H451.322z
	 M437.994,51.886c0-0.487-0.061-0.923-0.183-1.308c-0.121-0.385-0.3-0.75-0.532-1.096c-0.234-0.346-0.513-0.701-0.837-1.065
	c-0.325-0.365-0.7-0.771-1.126-1.218c-0.649-0.689-1.136-1.237-1.461-1.645c-0.325-0.404-0.487-0.852-0.487-1.339
	c0-0.526,0.184-0.933,0.548-1.217c0.365-0.284,0.872-0.427,1.521-0.427c0.67,0,1.213,0.098,1.628,0.289
	c0.416,0.193,0.736,0.371,0.959,0.533l1.248-1.826c-0.406-0.305-0.898-0.563-1.477-0.776c-0.577-0.212-1.293-0.319-2.146-0.319
	c-1.46,0-2.616,0.346-3.468,1.035c-0.853,0.689-1.279,1.633-1.279,2.83c0,0.832,0.203,1.548,0.609,2.146
	c0.405,0.599,0.952,1.254,1.644,1.963c0.365,0.365,0.689,0.699,0.973,1.004c0.284,0.305,0.527,0.589,0.731,0.853
	c0.202,0.263,0.359,0.523,0.471,0.776c0.111,0.254,0.168,0.523,0.168,0.806c0,0.569-0.204,1.031-0.608,1.386
	c-0.407,0.355-0.984,0.532-1.734,0.532c-0.792,0-1.446-0.137-1.964-0.411c-0.517-0.273-0.969-0.552-1.354-0.837l-1.278,1.796
	c0.345,0.305,0.888,0.635,1.628,0.989c0.741,0.354,1.679,0.533,2.814,0.533c1.645,0,2.887-0.386,3.729-1.157
	S437.994,53.002,437.994,51.886 M424.908,44.186c-0.162,1.137-0.436,2.268-0.821,3.395c-0.386,1.126-0.837,2.135-1.354,3.027
	c-0.518,0.894-1.08,1.619-1.688,2.176c-0.608,0.559-1.218,0.838-1.825,0.838c-0.59,0-1.03-0.213-1.324-0.639
	c-0.294-0.427-0.441-1.115-0.441-2.07c0-1.075,0.131-2.115,0.396-3.119c0.264-1.004,0.644-1.893,1.142-2.663
	c0.496-0.771,1.1-1.385,1.811-1.842c0.71-0.457,1.512-0.685,2.403-0.685c0.406,0,0.786,0.029,1.142,0.092
	c0.354,0.06,0.613,0.121,0.775,0.182L424.908,44.186z M423.661,40.473c-1.399,0-2.643,0.305-3.728,0.913
	c-1.085,0.609-2.004,1.415-2.754,2.419c-0.75,1.006-1.324,2.157-1.721,3.455c-0.395,1.299-0.592,2.648-0.592,4.049
	c0,1.359,0.303,2.461,0.912,3.301c0.609,0.844,1.522,1.265,2.739,1.265c0.669,0,1.268-0.134,1.795-0.396
	c0.528-0.265,1.004-0.613,1.431-1.051c0.425-0.436,0.812-0.979,1.156-1.538c0.344-0.558,0.67-1.083,0.973-1.797h0.062
	c-0.184,0.714-0.33,1.446-0.442,2.125c-0.11,0.681-0.218,1.442-0.319,2.156h2.495c0,0,0.062-0.647,0.183-1.774
	c0.122-1.126,0.365-2.68,0.73-4.729l1.4-7.775c-0.305-0.101-0.827-0.224-1.568-0.387C425.674,40.545,424.756,40.473,423.661,40.473
	 M410.484,45.525c-0.345,0.406-0.812,0.761-1.4,1.065c-0.588,0.304-1.282,0.563-2.085,0.776c-0.801,0.213-1.657,0.371-2.569,0.472
	c0.182-0.731,0.43-1.416,0.744-2.056c0.314-0.639,0.68-1.187,1.096-1.644c0.416-0.456,0.873-0.815,1.37-1.079
	s1.009-0.396,1.536-0.396c1.218,0,1.825,0.498,1.825,1.492C411.001,44.663,410.828,45.119,410.484,45.525 M412.462,41.324
	c-0.751-0.567-1.704-0.852-2.859-0.852c-1.097,0-2.13,0.264-3.104,0.791c-0.974,0.528-1.82,1.243-2.541,2.146
	c-0.72,0.902-1.294,1.963-1.719,3.181c-0.427,1.218-0.639,2.517-0.639,3.896c0,0.73,0.101,1.42,0.303,2.069
	c0.203,0.65,0.508,1.224,0.914,1.72c0.405,0.498,0.922,0.889,1.551,1.172s1.37,0.427,2.222,0.427c0.689,0,1.313-0.076,1.871-0.228
	c0.559-0.153,1.066-0.341,1.522-0.564c0.456-0.223,0.856-0.461,1.202-0.715c0.345-0.254,0.639-0.492,0.883-0.715l-1.34-1.705
	c-0.406,0.406-0.938,0.797-1.598,1.172c-0.659,0.376-1.395,0.562-2.206,0.562c-0.933,0-1.753-0.304-2.197-0.912
	c-0.447-0.609-0.799-1.48-0.799-2.617v-0.457c1.427-0.143,2.518-0.354,3.644-0.64c1.126-0.284,2.189-0.655,3.062-1.11
	c0.872-0.457,1.604-1.015,2.133-1.674c0.526-0.66,0.807-1.447,0.807-2.359C413.572,42.755,413.213,41.895,412.462,41.324
	 M390.614,45.525c-0.346,0.406-0.812,0.761-1.401,1.065c-0.588,0.304-1.282,0.563-2.084,0.776c-0.801,0.213-1.657,0.371-2.57,0.472
	c0.183-0.731,0.431-1.416,0.746-2.056c0.313-0.639,0.679-1.187,1.095-1.644c0.416-0.456,0.872-0.815,1.369-1.079
	s1.009-0.396,1.537-0.396c1.218,0,1.825,0.498,1.825,1.492C391.131,44.663,390.958,45.119,390.614,45.525 M392.592,41.324
	c-0.75-0.567-1.703-0.852-2.86-0.852c-1.095,0-2.13,0.264-3.104,0.791c-0.974,0.528-1.82,1.243-2.541,2.146
	c-0.72,0.902-1.293,1.963-1.719,3.181s-0.639,2.517-0.639,3.896c0,0.73,0.101,1.42,0.304,2.069c0.203,0.65,0.507,1.224,0.913,1.72
	c0.406,0.498,0.923,0.889,1.552,1.172s1.37,0.427,2.223,0.427c0.688,0,1.312-0.076,1.87-0.228c0.559-0.153,1.065-0.341,1.522-0.564
	c0.456-0.223,0.856-0.461,1.201-0.715s0.639-0.492,0.883-0.715l-1.339-1.705c-0.406,0.406-0.939,0.797-1.598,1.172
	c-0.659,0.376-1.395,0.562-2.206,0.562c-0.934,0-1.448-0.304-1.895-0.912c-0.446-0.609-0.494-1.48-0.494-2.617v-0.457
	c0.714-0.143,2.214-0.354,3.339-0.64c1.126-0.284,2.038-0.655,2.91-1.11c0.872-0.457,1.529-1.015,2.057-1.674
	c0.526-0.66,0.77-1.447,0.77-2.359C393.74,42.755,393.342,41.895,392.592,41.324 M377.133,44.186
	c-0.182,1.157-0.477,2.299-0.882,3.424c-0.406,1.127-0.873,2.137-1.399,3.029c-0.528,0.893-1.116,1.613-1.766,2.161
	c-0.649,0.547-1.308,0.821-1.978,0.821c-0.588,0-1.009-0.268-1.263-0.807c-0.254-0.537-0.381-1.232-0.381-2.084
	c0-1.076,0.132-2.105,0.396-3.09c0.263-0.984,0.648-1.857,1.156-2.617c0.507-0.762,1.11-1.365,1.81-1.812
	c0.7-0.446,1.496-0.67,2.39-0.67c0.467,0,0.897,0.036,1.293,0.106c0.396,0.072,0.675,0.138,0.838,0.198L377.133,44.186z
	 M377.742,40.548c-0.203-0.04-0.462-0.007-0.775-0.067c-0.315-0.062-0.767-0.05-1.354-0.05c-1.319,0-2.516,0.306-3.591,0.873
	c-1.076,0.569-1.993,1.345-2.754,2.308c-0.762,0.965-1.351,2.097-1.766,3.386c-0.416,1.288-0.624,2.665-0.624,4.126
	c0,0.65,0.071,1.264,0.214,1.843c0.142,0.578,0.359,1.081,0.653,1.507s0.67,0.766,1.126,1.021c0.457,0.253,1.009,0.38,1.659,0.38
	c0.649,0,1.242-0.137,1.78-0.411c0.537-0.272,1.035-0.628,1.49-1.065c0.457-0.436,0.872-0.969,1.248-1.537
	c0.375-0.567,0.726-1.053,1.051-1.767h0.06c-0.182,0.714-0.329,1.437-0.44,2.126c-0.112,0.689-0.219,1.441-0.319,2.155h2.465
	c0,0,0.065-0.647,0.197-1.774c0.132-1.126,0.381-2.848,0.746-4.897l2.769-15.444h-2.525L377.742,40.548z M362.01,44.186
	c-0.162,1.137-0.437,2.268-0.821,3.395c-0.385,1.126-0.837,2.135-1.354,3.027c-0.517,0.894-1.08,1.619-1.688,2.176
	c-0.608,0.559-1.217,0.838-1.826,0.838c-0.588,0-1.03-0.213-1.323-0.639c-0.295-0.427-0.441-1.115-0.441-2.07
	c0-1.075,0.132-2.115,0.396-3.119c0.263-1.004,0.645-1.893,1.142-2.663c0.496-0.771,1.1-1.385,1.811-1.842
	c0.71-0.457,1.511-0.685,2.403-0.685c0.405,0,0.786,0.029,1.142,0.092c0.355,0.06,0.613,0.121,0.776,0.182L362.01,44.186z
	 M360.763,40.473c-1.4,0-2.644,0.305-3.729,0.913c-1.085,0.609-2.003,1.415-2.754,2.419c-0.75,1.006-1.323,2.157-1.719,3.455
	c-0.396,1.299-0.593,2.648-0.593,4.049c0,1.359,0.304,2.461,0.912,3.301c0.608,0.844,1.521,1.265,2.738,1.265
	c0.67,0,1.269-0.134,1.796-0.396c0.527-0.265,1.004-0.613,1.431-1.051c0.426-0.436,0.811-0.979,1.156-1.538
	c0.345-0.558,0.669-1.083,0.974-1.797h0.061c-0.182,0.714-0.33,1.446-0.441,2.125c-0.111,0.681-0.219,1.442-0.319,2.156h2.495
	c0,0,0.062-0.647,0.183-1.774c0.122-1.126,0.366-2.68,0.731-4.729l1.398-7.775c-0.304-0.101-0.827-0.224-1.566-0.387
	C362.775,40.545,361.858,40.473,360.763,40.473 M346.643,40.473c-0.73,0-1.385,0.137-1.962,0.41
	c-0.578,0.275-1.102,0.63-1.568,1.066c-0.467,0.436-0.887,1.087-1.262,1.635c-0.376,0.548-0.716,1.089-1.02,1.802h-0.062
	c0.062-0.713,0.091-0.938,0.091-1.345c0-0.447-0.05-0.952-0.151-1.357c-0.102-0.406-0.269-0.806-0.503-1.121
	c-0.232-0.314-0.538-0.588-0.912-0.781c-0.376-0.192-0.848-0.299-1.415-0.299c-0.751,0-1.426,0.152-2.023,0.467
	c-0.6,0.315-1.137,0.709-1.613,1.185c-0.477,0.478-0.888,1.06-1.232,1.618c-0.346,0.559-0.64,0.921-0.883,1.634h-0.061
	c0.081-0.713,0.167-0.757,0.259-1.163s0.177-0.85,0.259-1.267c0.08-0.415,0.152-0.699,0.213-1.056
	c0.061-0.354,0.111-0.795,0.152-0.795h-2.435l-2.647,14.269h2.526l0.272-1.517c0.346-1.906,0.762-3.531,1.248-4.942
	c0.487-1.409,1.004-2.554,1.553-3.468c0.548-0.912,1.12-1.584,1.719-2.031c0.599-0.445,1.182-0.665,1.75-0.665
	c0.567,0,0.947,0.2,1.142,0.596c0.192,0.396,0.289,0.859,0.289,1.386c0,0.447-0.051,0.856-0.153,1.364l-1.673,9.277h2.525
	l0.273-1.517c0.346-1.886,0.757-3.496,1.232-4.896c0.477-1.4,0.995-2.545,1.553-3.468s1.142-1.605,1.749-2.062
	c0.609-0.455,1.217-0.681,1.826-0.681c0.527,0,0.883,0.18,1.065,0.535c0.183,0.356,0.273,0.798,0.273,1.325
	c0,0.244-0.015,0.492-0.046,0.746c-0.03,0.254-0.066,0.455-0.106,0.739l-1.674,9.277h2.526l1.765-9.765
	c0.04-0.283,0.076-0.528,0.107-0.803c0.03-0.273,0.045-0.525,0.045-0.789c0-1.097-0.243-1.955-0.729-2.595
	C348.438,40.783,347.678,40.473,346.643,40.473 M442.467,20.575c-0.79,0-1.445-0.137-1.963-0.41
	c-0.517-0.275-0.969-0.553-1.354-0.837l-1.278,1.795c0.345,0.305,0.888,0.635,1.628,0.989c0.74,0.355,1.679,0.533,2.814,0.533
	c1.644,0,2.886-0.385,3.728-1.157c0.843-0.771,1.264-1.714,1.264-2.83c0-0.487-0.062-0.923-0.184-1.309
	c-0.121-0.385-0.299-0.75-0.532-1.096c-0.232-0.345-0.513-0.7-0.837-1.065c-0.323-0.365-0.699-0.771-1.126-1.217
	c-0.648-0.69-1.136-1.238-1.461-1.644c-0.324-0.406-0.486-0.852-0.486-1.339c0-0.528,0.183-0.933,0.549-1.218
	c0.365-0.284,0.871-0.426,1.521-0.426c0.669,0,1.212,0.097,1.628,0.289c0.416,0.193,0.735,0.371,0.958,0.533l1.248-1.826
	c-0.405-0.305-0.897-0.563-1.475-0.776c-0.579-0.213-1.294-0.32-2.146-0.32c-1.46,0-2.616,0.346-3.469,1.035
	c-0.852,0.69-1.278,1.634-1.278,2.831c0,0.832,0.202,1.547,0.609,2.145c0.405,0.599,0.953,1.253,1.643,1.963
	c0.365,0.366,0.689,0.701,0.974,1.005c0.285,0.304,0.528,0.589,0.73,0.852c0.202,0.264,0.36,0.523,0.473,0.776
	c0.11,0.254,0.167,0.523,0.167,0.807c0,0.568-0.203,1.03-0.609,1.385S443.217,20.575,442.467,20.575 M430.873,20.836
	c0.65-3.633,1.537-6.421,2.663-8.227c1.126-1.805,2.308-2.743,3.545-2.743c0.202,0,0.375-0.002,0.518,0.028
	c0.142,0.031,0.284,0.058,0.426,0.098l0.974-2.439c-0.203-0.102-0.416-0.18-0.639-0.231c-0.223-0.05-0.518-0.077-0.882-0.077
	c-0.548,0-1.08,0.152-1.599,0.456c-0.517,0.305-0.999,0.7-1.445,1.187c-0.446,0.487-0.853,1.191-1.217,1.779
	c-0.365,0.589-0.681,1.188-0.943,1.902h-0.062c0.143-0.714,0.31-1.483,0.503-2.345c0.192-0.862,0.34-1.936,0.441-2.649h-2.435
	l-2.647,14.982h2.525L430.873,20.836z M418.381,12.555c0.315-0.639,0.681-1.187,1.097-1.643c0.416-0.457,0.872-0.817,1.369-1.081
	c0.497-0.263,1.009-0.396,1.536-0.396c1.218,0,1.826,0.498,1.826,1.492c0,0.507-0.173,0.964-0.517,1.369
	c-0.346,0.407-0.812,0.762-1.401,1.066c-0.588,0.304-1.283,0.563-2.084,0.776c-0.801,0.213-1.658,0.37-2.57,0.472
	C417.819,13.879,418.067,13.194,418.381,12.555 M416.023,21.047c0.406,0.497,0.922,0.888,1.552,1.172
	c0.629,0.284,1.369,0.426,2.221,0.426c0.689,0,1.314-0.076,1.872-0.228c0.559-0.153,1.065-0.34,1.521-0.563
	c0.457-0.224,0.856-0.461,1.202-0.716c0.345-0.253,0.639-0.491,0.883-0.715l-1.339-1.704c-0.406,0.406-0.939,0.796-1.599,1.171
	c-0.659,0.376-1.395,0.564-2.206,0.564c-0.933,0-1.577-0.305-2.023-0.914c-0.447-0.608-0.625-1.48-0.625-2.617v-0.456
	c1.427-0.142,2.344-0.355,3.47-0.64c1.126-0.284,2.103-0.654,2.976-1.111c0.871-0.456,1.561-1.014,2.088-1.674
	c0.527-0.659,0.786-1.445,0.786-2.358c0-1.157-0.379-2.019-1.13-2.588c-0.751-0.567-1.705-0.852-2.861-0.852
	c-1.096,0-2.13,0.264-3.104,0.791c-0.974,0.528-1.821,1.244-2.541,2.146c-0.721,0.903-1.294,1.964-1.72,3.181
	c-0.426,1.217-0.639,2.516-0.639,3.896c0,0.73,0.101,1.42,0.304,2.07C415.312,19.977,415.617,20.55,416.023,21.047 M412.402,1.461
	c-0.487,0-0.903,0.173-1.248,0.518c-0.345,0.345-0.517,0.76-0.517,1.247c0,0.468,0.172,0.873,0.517,1.218s0.761,0.517,1.248,0.517
	s0.902-0.172,1.247-0.517s0.517-0.75,0.517-1.218c0-0.487-0.172-0.902-0.517-1.247C413.305,1.634,412.89,1.461,412.402,1.461
	 M410.303,22.557l2.646-14.982h-2.525l-2.647,14.982H410.303z M407.047,9.715l0.334-2.14h-3.56l0.396-2.037
	c0.161-0.954,0.461-1.729,0.897-2.358c0.437-0.629,1.172-0.936,2.207-0.936c0.588,0,1.115,0.091,1.582,0.263
	c0.466,0.173,0.811,0.342,1.034,0.504l1.096-2.068c-0.285-0.183-0.735-0.385-1.354-0.608C409.061,0.111,408.314,0,407.442,0
	c-1.664,0-2.951,0.462-3.865,1.385c-0.912,0.923-1.532,2.248-1.855,3.972c-0.081,0.426-0.152,0.812-0.214,1.156
	c-0.041,0.163-0.07,0.31-0.091,0.442c-0.02,0.132-0.041,0.216-0.061,0.317c-0.021,0.122-0.041,0.303-0.062,0.303h-2.83l-0.335,2.14
	h2.83l-2.586,13.892c-0.081,0.466-0.188,0.883-0.318,1.299c-0.134,0.416-0.311,0.779-0.533,1.114
	c-0.224,0.335-0.498,0.593-0.822,0.786c-0.324,0.192-0.71,0.286-1.156,0.286c-0.405,0-0.766-0.047-1.08-0.139
	c-0.313-0.091-0.604-0.188-0.867-0.289l-0.821,2.069c0.345,0.141,0.72,0.268,1.126,0.38c0.405,0.111,0.903,0.168,1.491,0.168
	c0.852,0,1.587-0.123,2.206-0.366c0.618-0.244,1.146-0.604,1.582-1.08c0.437-0.478,0.791-1.071,1.064-1.781
	c0.274-0.71,0.502-1.494,0.686-2.447l2.525-13.892H407.047z M395.636,7.575h-2.526l-2.647,14.982h2.525L395.636,7.575z
	 M395.087,4.961c0.487,0,0.903-0.172,1.248-0.517c0.346-0.345,0.518-0.75,0.518-1.218c0-0.487-0.172-0.902-0.518-1.247
	c-0.345-0.345-0.761-0.518-1.248-0.518c-0.486,0-0.902,0.173-1.248,0.518c-0.344,0.345-0.516,0.76-0.516,1.247
	c0,0.468,0.172,0.873,0.516,1.218C394.185,4.789,394.601,4.961,395.087,4.961 M386.445,22.097c0.689-0.365,1.298-0.781,1.826-1.248
	l-1.157-1.735c-0.345,0.264-0.74,0.554-1.186,0.868c-0.447,0.315-0.935,0.472-1.462,0.472c-0.324,0-0.548-0.087-0.67-0.259
	c-0.121-0.172-0.182-0.421-0.182-0.746c0-0.202,0.021-0.431,0.061-0.685c0.041-0.253,0.092-0.484,0.152-0.788l1.522-8.261h3.65
	l0.365-2.14h-3.621l0.853-4.685l-2.679,0.653l-0.729,4.032h-2.557l-0.365,2.14h2.525l-1.611,8.717
	c-0.042,0.285-0.076,0.52-0.107,0.752c-0.031,0.234-0.046,0.45-0.046,0.673c0,0.913,0.228,1.602,0.685,2.079
	c0.456,0.476,1.202,0.712,2.236,0.712C384.923,22.648,385.755,22.462,386.445,22.097 M368.4,15.629
	c0.507-1.41,1.049-2.566,1.628-3.469c0.578-0.903,1.176-1.568,1.795-1.994c0.619-0.426,1.202-0.639,1.75-0.639
	c0.932,0,1.4,0.599,1.4,1.795c0,0.183-0.012,0.381-0.031,0.594c-0.021,0.213-0.051,0.57-0.091,0.793l-1.704,9.848h2.524
	l1.797-10.031c0.039-0.284,0.075-0.627,0.105-0.891c0.031-0.263,0.046-0.552,0.046-0.795c0-1.116-0.259-2.006-0.775-2.635
	c-0.518-0.629-1.294-0.952-2.327-0.952c-0.792,0-1.503,0.163-2.131,0.498c-0.629,0.334-1.187,0.743-1.674,1.23
	c-0.486,0.487-0.914,0.885-1.278,1.452c-0.365,0.569-0.669,1.422-0.912,1.422h-0.062c0.081,0,0.172-0.601,0.274-1.027
	c0.101-0.426,0.192-0.777,0.272-1.183c0.081-0.406,0.152-0.792,0.215-1.157c0.06-0.365,0.109-0.913,0.151-0.913h-2.435
	l-2.647,14.982h2.525l0.274-1.721C367.456,18.867,367.893,17.04,368.4,15.629 M354.601,12.555c0.313-0.639,0.679-1.187,1.095-1.643
	c0.416-0.457,0.873-0.817,1.37-1.081c0.497-0.263,1.009-0.396,1.536-0.396c1.218,0,1.826,0.498,1.826,1.492
	c0,0.507-0.173,0.964-0.518,1.369c-0.345,0.407-0.811,0.762-1.399,1.066c-0.589,0.304-1.283,0.563-2.085,0.776
	c-0.802,0.213-1.658,0.37-2.57,0.472C354.037,13.879,354.285,13.194,354.601,12.555 M353.793,22.219
	c0.629,0.284,1.37,0.426,2.223,0.426c0.688,0,1.312-0.076,1.871-0.228c0.558-0.153,1.065-0.34,1.521-0.563
	c0.456-0.224,0.857-0.461,1.202-0.716c0.345-0.253,0.639-0.491,0.882-0.715l-1.339-1.704c-0.406,0.406-0.938,0.796-1.597,1.171
	c-0.66,0.376-1.396,0.564-2.207,0.564c-0.933,0-1.791-0.305-2.237-0.914c-0.446-0.608-0.837-1.48-0.837-2.617v-0.456
	c1.427-0.142,2.557-0.355,3.683-0.64c1.125-0.284,2.209-0.654,3.081-1.111c0.872-0.456,1.614-1.014,2.143-1.674
	c0.526-0.659,0.812-1.445,0.812-2.358c0-1.157-0.365-2.019-1.115-2.588c-0.751-0.567-1.698-0.852-2.855-0.852
	c-1.095,0-2.127,0.264-3.102,0.791c-0.974,0.528-1.819,1.244-2.538,2.146c-0.722,0.903-1.295,1.964-1.72,3.181
	c-0.427,1.217-0.639,2.516-0.639,3.896c0,0.73,0.101,1.42,0.304,2.07c0.203,0.649,0.508,1.222,0.914,1.719
	C352.647,21.544,353.164,21.935,353.793,22.219 M346.431,10.957c-0.184,1.157-0.478,2.298-0.884,3.425
	c-0.405,1.126-0.871,2.135-1.399,3.028c-0.528,0.893-1.116,1.613-1.765,2.161c-0.649,0.548-1.309,0.822-1.978,0.822
	c-0.589,0-1.01-0.269-1.263-0.807c-0.254-0.537-0.381-1.232-0.381-2.085c0-1.075,0.132-2.105,0.396-3.089
	c0.263-0.984,0.649-1.857,1.157-2.618c0.506-0.761,1.109-1.364,1.81-1.811c0.7-0.446,1.495-0.669,2.39-0.669
	c0.466,0,0.897,0.035,1.293,0.106c0.395,0.072,0.674,0.137,0.837,0.198L346.431,10.957z M347.038,7.525
	c-0.203-0.04-0.461-0.11-0.774-0.171c-0.315-0.061-0.768-0.101-1.355-0.101c-1.319,0-2.515,0.28-3.59,0.848
	c-1.076,0.568-1.994,1.332-2.755,2.296c-0.76,0.964-1.35,2.089-1.765,3.377c-0.416,1.289-0.625,2.662-0.625,4.123
	c0,0.65,0.071,1.263,0.215,1.842c0.141,0.578,0.359,1.08,0.653,1.506c0.294,0.426,0.669,0.766,1.126,1.019
	c0.456,0.254,1.008,0.381,1.659,0.381c0.648,0,1.242-0.137,1.78-0.411c0.537-0.274,1.034-0.629,1.491-1.065
	c0.456-0.436,0.872-0.764,1.247-1.332s0.726-1.561,1.05-1.561h0.061c-0.183,0.713-0.33,1.436-0.44,2.125
	c-0.112,0.69-0.219,1.442-0.32,2.156h2.465c0-0.714,0.065-0.854,0.198-1.979c0.132-1.126,0.38-2.745,0.745-4.795l2.77-15.341h-2.525
	L347.038,7.525z M334.928,1.867h-2.708l-3.622,20.69h2.708L334.928,1.867z M284.656,41.658c-3.026,3.027-7.566,4.44-13.617,4.44
	h-5.515V11.142h5.113c6.373,0,11.059,1.282,14.059,4.04c2.999,2.759,4.499,7.04,4.499,13.038S287.683,38.634,284.656,41.658
	 M293.775,9.1c-2.52-2.303-5.705-4.085-9.562-5.344c-3.855-1.258-8.408-1.889-13.656-1.889h-16.448v53.507h16.046
	c5.302,0,9.908-0.709,13.818-2.128c3.909-1.419,7.137-3.361,9.681-5.824s4.432-5.37,5.664-8.717
	c1.232-3.348,1.848-6.95,1.848-10.806s-0.602-7.377-1.808-10.565C298.153,14.148,296.292,11.403,293.775,9.1 M229.141,55.374h10.701
	V1.868h-10.701V55.374z M217.726,9.1V1.867h-37.099v9.275h23.409L179.2,47.984v7.39h39.238v-9.275H193.03L217.726,9.1z
	 M151.377,31.831h17.122V23.27h-17.122V11.142h19.263V1.867h-30.678v53.507h31.392v-9.275h-19.977V31.831z"/>
<path fill="#05788C" d="M0.681,9.082V1.869h2.043v6.979c0,2.584,0.965,3.618,3.174,3.618c2.09,0,3.03-1.221,3.03-3.407v-7.19h1.881
	v7.027c0,3.218-1.598,5.262-4.983,5.262C2.279,14.158,0.681,12.161,0.681,9.082"/>
<path fill="#05788C" d="M15.365,1.869h2.044l5.334,7.307c0.682,0.965,1.221,1.998,1.245,1.998h0.048c0,0-0.095-0.941-0.095-1.856
	V1.869h1.833v12.078h-1.833l-5.663-7.754c-0.563-0.822-1.081-1.787-1.081-1.787h-0.024c0,0,0.071,0.801,0.071,1.551v7.99h-1.879
	V1.869z"/>
<rect x="30.564" y="1.869" fill="#05788C" width="2.02" height="12.078"/>
<path fill="#05788C" d="M35.968,1.869h2.138l3.055,7.918c0.352,0.894,0.705,2.045,0.705,2.069h0.047
	c0-0.024,0.352-1.152,0.703-2.069l2.939-7.918h1.95l-4.676,12.078h-1.973L35.968,1.869z"/>
<polygon fill="#05788C" points="50.818,1.869 58.196,1.869 58.196,3.514 52.837,3.514 52.837,6.827 57.632,6.827 57.632,8.426 
	52.837,8.426 52.837,12.302 58.313,12.302 58.313,13.947 50.818,13.947 "/>
<path fill="#05788C" d="M66.16,7.18c1.692,0,2.419-0.635,2.419-1.88c0-1.269-0.798-1.857-2.535-1.857h-1.599V7.18H66.16z
	 M62.425,1.869h3.781c2.82,0,4.442,1.151,4.442,3.338c0,2.067-1.504,2.983-3.314,3.171v0.048c0.259,0.187,0.706,0.633,1.435,1.643
	l2.866,3.878h-2.326l-2.444-3.455c-1.198-1.668-1.48-1.808-2.207-1.808h-0.212v5.263h-2.02V1.869z"/>
<path fill="#05788C" d="M74.007,12.96l0.893-1.434c0.328,0.235,1.221,0.987,2.819,0.987c1.433,0,2.372-0.635,2.372-1.692
	c0-1.268-1.149-1.621-2.912-2.443c-1.553-0.706-2.867-1.574-2.867-3.478c0-2.114,1.809-3.265,3.898-3.265
	c1.977,0,2.986,0.634,3.503,0.985l-0.869,1.434c-0.447-0.305-1.362-0.776-2.562-0.776c-1.15,0-1.998,0.494-1.998,1.528
	c0,1.151,1.01,1.504,2.326,2.092c1.693,0.751,3.431,1.62,3.431,3.829c0,2.115-1.691,3.431-4.299,3.431
	C75.722,14.159,74.497,13.406,74.007,12.96"/>
<rect x="86.011" y="1.869" fill="#05788C" width="2.02" height="12.078"/>
<polygon fill="#05788C" points="95.127,3.538 91.438,3.538 91.438,1.87 100.86,1.87 100.86,3.538 97.172,3.538 97.172,13.947 
	95.127,13.947 "/>
<polygon fill="#05788C" points="107.32,9.365 103.068,1.87 105.276,1.87 108.379,7.603 108.425,7.603 111.48,1.87 113.454,1.87 
	109.341,9.365 109.341,13.947 107.32,13.947 "/>
<path fill="#05788C" d="M10.597,28.693c0-2.491-1.386-4.653-4.184-4.653c-2.794,0-4.252,2.139-4.252,4.582
	c0,2.49,1.41,4.629,4.207,4.629C9.164,33.251,10.597,31.159,10.597,28.693 M0,28.693c0-3.313,2.326-6.296,6.368-6.296
	s6.368,2.912,6.368,6.225s-2.28,6.298-6.323,6.298C2.373,34.92,0,32.006,0,28.693"/>
<polygon fill="#05788C" points="16.305,22.631 23.565,22.631 23.565,24.274 18.324,24.274 18.324,27.706 22.954,27.706 
	22.954,29.325 18.324,29.325 18.324,34.707 16.305,34.707 "/>
<path fill="#05788C" d="M0,49.406c0-3.358,2.303-6.248,6.39-6.248c1.623,0,2.703,0.354,3.642,0.962L9.07,45.624
	c-0.706-0.471-1.552-0.776-2.726-0.776c-2.75,0-4.183,1.904-4.183,4.488c0,2.655,1.363,4.654,4.229,4.654
	c1.364,0,2.28-0.447,2.986-0.962l0.845,1.43c-0.658,0.563-2.066,1.224-3.9,1.224C2.208,55.682,0,52.768,0,49.406"/>
<path fill="#05788C" d="M20.088,51.192l-1.433-3.687c-0.4-1.059-0.753-2.188-0.753-2.188h-0.047c0,0-0.374,1.176-0.752,2.188
	l-1.409,3.687H20.088z M16.963,43.393h1.975l4.909,12.078h-2.113l-1.035-2.631h-5.616l-0.986,2.631h-2L16.963,43.393z"/>
<polygon fill="#05788C" points="26.806,43.393 28.875,43.393 28.875,53.824 33.973,53.824 33.973,55.471 26.806,55.471 "/>
<rect x="37.425" y="43.393" fill="#05788C" width="2.02" height="12.078"/>
<polygon fill="#05788C" points="43.932,43.393 51.194,43.393 51.194,45.037 45.955,45.037 45.955,48.467 50.582,48.467 
	50.582,50.088 45.955,50.088 45.955,55.471 43.932,55.471 "/>
<path fill="#05788C" d="M64.398,49.453c0-2.489-1.387-4.651-4.184-4.651c-2.795,0-4.253,2.14-4.253,4.582
	c0,2.491,1.413,4.629,4.207,4.629C62.965,54.013,64.398,51.921,64.398,49.453 M53.8,49.453c0-3.312,2.326-6.295,6.368-6.295
	c4.044,0,6.369,2.914,6.369,6.226c0,3.313-2.278,6.299-6.323,6.299C56.173,55.683,53.8,52.767,53.8,49.453"/>
<path fill="#05788C" d="M73.303,48.703c1.692,0,2.42-0.635,2.42-1.88c0-1.269-0.801-1.856-2.538-1.856h-1.599v3.736H73.303z
	 M69.564,43.393h3.784c2.819,0,4.441,1.152,4.441,3.337c0,2.067-1.506,2.983-3.312,3.17v0.048c0.258,0.188,0.703,0.637,1.432,1.645
	l2.867,3.879h-2.325l-2.445-3.454c-1.197-1.669-1.479-1.812-2.209-1.812h-0.211v5.266h-2.021V43.393z"/>
<path fill="#05788C" d="M81.734,43.393h2.044l5.335,7.309c0.682,0.961,1.222,1.996,1.246,1.996h0.046c0,0-0.093-0.939-0.093-1.855
	v-7.449h1.832v12.078h-1.832l-5.662-7.754c-0.565-0.823-1.082-1.787-1.082-1.787h-0.023c0,0,0.07,0.8,0.07,1.549v7.992h-1.881
	V43.393z"/>
<rect x="96.606" y="43.393" fill="#05788C" width="2.021" height="12.078"/>
<path fill="#05788C" d="M109.718,51.192l-1.432-3.687c-0.402-1.059-0.754-2.188-0.754-2.188h-0.046c0,0-0.376,1.176-0.753,2.188
	l-1.41,3.687H109.718z M106.593,43.393h1.975l4.91,12.078h-2.115l-1.034-2.631h-5.616l-0.986,2.631h-1.996L106.593,43.393z"/>
<g>
</g>
<g>
</g>
<g>
</g>
<g>
</g>
<g>
</g>
<g>
</g>
</svg>
