<?xml version="1.0" encoding="utf-8"?>
<!-- Generator: Adobe Illustrator 16.0.0, SVG Export Plug-In . SVG Version: 6.00 Build 0)  -->
<!DOCTYPE svg PUBLIC "-//W3C//DTD SVG 1.1//EN" "http://www.w3.org/Graphics/SVG/1.1/DTD/svg11.dtd">
<svg version="1.1" id="Layer_1" xmlns="http://www.w3.org/2000/svg" xmlns:xlink="http://www.w3.org/1999/xlink" x="0px" y="0px"
	 width="314.037px" height="62.234px" viewBox="0 0 314.037 62.234" enable-background="new 0 0 314.037 62.234"
	 xml:space="preserve">
<path fill="#05788C" d="M311.36,41.105l-4.687,10.139c-0.162,0.365-0.304,0.691-0.426,1.056c-0.122,0.365-0.233,0.935-0.336,0.935
	h-0.06c-0.041,0-0.086-0.623-0.137-0.979c-0.052-0.355-0.106-0.617-0.168-1.003l-1.796-10.147h-2.646l2.952,14.978
	c-0.467,0.792-0.889,1.387-1.265,1.903c-0.375,0.519-0.744,0.899-1.109,1.203c-0.365,0.306-0.726,0.504-1.08,0.625
	c-0.355,0.123-0.736,0.176-1.142,0.176c-0.467,0-0.842-0.039-1.126-0.11c-0.283-0.071-0.496-0.149-0.64-0.231l-1.004,2.069
	c0.142,0.081,0.407,0.187,0.792,0.32c0.385,0.131,0.973,0.196,1.765,0.196c0.993,0,1.871-0.188,2.633-0.562
	c0.761-0.376,1.479-0.954,2.159-1.734c0.68-0.781,1.355-1.775,2.024-2.983c0.67-1.207,1.41-2.534,2.221-4.218l5.751-11.631H311.36z
	 M298.032,51.886c0-0.487-0.061-0.923-0.183-1.308c-0.121-0.385-0.3-0.75-0.532-1.096c-0.234-0.346-0.513-0.701-0.837-1.065
	c-0.325-0.365-0.7-0.771-1.126-1.218c-0.649-0.689-1.136-1.237-1.461-1.645c-0.325-0.404-0.487-0.852-0.487-1.339
	c0-0.526,0.184-0.933,0.548-1.217c0.365-0.284,0.872-0.427,1.521-0.427c0.67,0,1.213,0.098,1.628,0.289
	c0.416,0.193,0.736,0.371,0.959,0.533l1.248-1.826c-0.406-0.305-0.898-0.563-1.477-0.776c-0.577-0.212-1.293-0.319-2.146-0.319
	c-1.46,0-2.616,0.346-3.468,1.035c-0.853,0.689-1.279,1.633-1.279,2.83c0,0.832,0.203,1.548,0.609,2.146
	c0.405,0.599,0.952,1.254,1.644,1.963c0.365,0.365,0.689,0.699,0.973,1.004c0.284,0.305,0.527,0.589,0.731,0.853
	c0.202,0.263,0.359,0.523,0.471,0.776c0.111,0.254,0.168,0.523,0.168,0.806c0,0.569-0.204,1.031-0.608,1.386
	c-0.407,0.355-0.984,0.532-1.734,0.532c-0.792,0-1.446-0.137-1.964-0.411c-0.517-0.273-0.969-0.552-1.354-0.837l-1.278,1.796
	c0.345,0.305,0.888,0.635,1.628,0.989c0.741,0.354,1.679,0.533,2.814,0.533c1.645,0,2.887-0.386,3.729-1.157
	S298.032,53.002,298.032,51.886 M284.946,44.186c-0.162,1.137-0.436,2.268-0.821,3.395c-0.386,1.126-0.837,2.135-1.354,3.027
	c-0.518,0.894-1.08,1.619-1.688,2.176c-0.608,0.559-1.218,0.838-1.825,0.838c-0.59,0-1.03-0.213-1.324-0.639
	c-0.294-0.427-0.441-1.115-0.441-2.07c0-1.075,0.131-2.115,0.396-3.119c0.264-1.004,0.644-1.893,1.142-2.663
	c0.496-0.771,1.1-1.385,1.811-1.842c0.71-0.457,1.512-0.685,2.403-0.685c0.406,0,0.786,0.029,1.142,0.092
	c0.354,0.06,0.613,0.121,0.775,0.182L284.946,44.186z M283.699,40.473c-1.399,0-2.643,0.305-3.728,0.913
	c-1.085,0.609-2.004,1.415-2.754,2.419c-0.75,1.006-1.324,2.157-1.721,3.455c-0.395,1.299-0.592,2.648-0.592,4.049
	c0,1.359,0.303,2.461,0.912,3.301c0.609,0.844,1.522,1.265,2.739,1.265c0.669,0,1.268-0.134,1.795-0.396
	c0.528-0.265,1.004-0.613,1.431-1.051c0.425-0.436,0.812-0.979,1.156-1.538c0.344-0.558,0.67-1.083,0.973-1.797h0.062
	c-0.184,0.714-0.33,1.446-0.442,2.125c-0.11,0.681-0.218,1.442-0.319,2.156h2.495c0,0,0.062-0.647,0.183-1.774
	c0.122-1.126,0.365-2.68,0.73-4.729l1.4-7.775c-0.305-0.101-0.827-0.224-1.568-0.387C285.712,40.545,284.794,40.473,283.699,40.473
	 M270.522,45.525c-0.345,0.406-0.812,0.761-1.4,1.065c-0.588,0.304-1.282,0.563-2.085,0.776c-0.801,0.213-1.657,0.371-2.569,0.472
	c0.182-0.731,0.43-1.416,0.744-2.056c0.314-0.639,0.68-1.187,1.096-1.644c0.416-0.456,0.873-0.815,1.37-1.079
	s1.009-0.396,1.536-0.396c1.218,0,1.825,0.498,1.825,1.492C271.039,44.663,270.866,45.119,270.522,45.525 M272.5,41.324
	c-0.751-0.567-1.704-0.852-2.859-0.852c-1.097,0-2.13,0.264-3.104,0.791c-0.974,0.528-1.82,1.243-2.541,2.146
	c-0.72,0.902-1.294,1.963-1.719,3.181c-0.427,1.218-0.639,2.517-0.639,3.896c0,0.73,0.101,1.42,0.303,2.069
	c0.203,0.65,0.508,1.224,0.914,1.72c0.405,0.498,0.922,0.889,1.551,1.172s1.37,0.427,2.222,0.427c0.689,0,1.313-0.076,1.871-0.228
	c0.559-0.153,1.066-0.341,1.522-0.564c0.456-0.223,0.856-0.461,1.202-0.715c0.345-0.254,0.639-0.492,0.883-0.715l-1.34-1.705
	c-0.406,0.406-0.938,0.797-1.598,1.172c-0.659,0.376-1.395,0.562-2.206,0.562c-0.933,0-1.753-0.304-2.197-0.912
	c-0.447-0.609-0.799-1.48-0.799-2.617v-0.457c1.427-0.143,2.518-0.354,3.644-0.64c1.126-0.284,2.189-0.655,3.062-1.11
	c0.872-0.457,1.604-1.015,2.133-1.674c0.526-0.66,0.807-1.447,0.807-2.359C273.61,42.755,273.251,41.895,272.5,41.324
	 M250.652,45.525c-0.346,0.406-0.812,0.761-1.401,1.065c-0.588,0.304-1.282,0.563-2.084,0.776c-0.801,0.213-1.657,0.371-2.57,0.472
	c0.183-0.731,0.431-1.416,0.746-2.056c0.313-0.639,0.679-1.187,1.095-1.644c0.416-0.456,0.872-0.815,1.369-1.079
	s1.009-0.396,1.537-0.396c1.218,0,1.825,0.498,1.825,1.492C251.169,44.663,250.996,45.119,250.652,45.525 M252.63,41.324
	c-0.75-0.567-1.703-0.852-2.86-0.852c-1.095,0-2.13,0.264-3.104,0.791c-0.974,0.528-1.82,1.243-2.541,2.146
	c-0.72,0.902-1.293,1.963-1.719,3.181s-0.639,2.517-0.639,3.896c0,0.73,0.101,1.42,0.304,2.069c0.203,0.65,0.507,1.224,0.913,1.72
	c0.406,0.498,0.923,0.889,1.552,1.172s1.37,0.427,2.223,0.427c0.688,0,1.312-0.076,1.87-0.228c0.559-0.153,1.065-0.341,1.522-0.564
	c0.456-0.223,0.856-0.461,1.201-0.715s0.639-0.492,0.883-0.715l-1.339-1.705c-0.406,0.406-0.939,0.797-1.598,1.172
	c-0.659,0.376-1.395,0.562-2.206,0.562c-0.934,0-1.448-0.304-1.895-0.912c-0.446-0.609-0.494-1.48-0.494-2.617v-0.457
	c0.714-0.143,2.214-0.354,3.339-0.64c1.126-0.284,2.038-0.655,2.91-1.11c0.872-0.457,1.529-1.015,2.057-1.674
	c0.526-0.66,0.77-1.447,0.77-2.359C253.778,42.755,253.38,41.895,252.63,41.324 M237.171,44.186
	c-0.182,1.157-0.477,2.299-0.882,3.424c-0.406,1.127-0.873,2.137-1.399,3.029c-0.528,0.893-1.116,1.613-1.766,2.161
	c-0.649,0.547-1.308,0.821-1.978,0.821c-0.588,0-1.009-0.268-1.263-0.807c-0.254-0.537-0.381-1.232-0.381-2.084
	c0-1.076,0.132-2.105,0.396-3.09c0.263-0.984,0.648-1.857,1.156-2.617c0.507-0.762,1.11-1.365,1.81-1.812
	c0.7-0.446,1.496-0.67,2.39-0.67c0.467,0,0.897,0.036,1.293,0.106c0.396,0.072,0.675,0.138,0.838,0.198L237.171,44.186z
	 M237.78,40.548c-0.203-0.04-0.462-0.007-0.775-0.067c-0.315-0.062-0.767-0.05-1.354-0.05c-1.319,0-2.516,0.306-3.591,0.873
	c-1.076,0.569-1.993,1.345-2.754,2.308c-0.762,0.965-1.351,2.097-1.766,3.386c-0.416,1.288-0.624,2.665-0.624,4.126
	c0,0.65,0.071,1.264,0.214,1.843c0.142,0.578,0.359,1.081,0.653,1.507s0.67,0.766,1.126,1.021c0.457,0.253,1.009,0.38,1.659,0.38
	c0.649,0,1.242-0.137,1.78-0.411c0.537-0.272,1.035-0.628,1.49-1.065c0.457-0.436,0.872-0.969,1.248-1.537
	c0.375-0.567,0.726-1.053,1.051-1.767h0.06c-0.182,0.714-0.329,1.437-0.44,2.126c-0.112,0.689-0.219,1.441-0.319,2.155h2.465
	c0,0,0.065-0.647,0.197-1.774c0.132-1.126,0.381-2.848,0.746-4.897l2.769-15.444h-2.525L237.78,40.548z M222.048,44.186
	c-0.162,1.137-0.437,2.268-0.821,3.395c-0.385,1.126-0.837,2.135-1.354,3.027c-0.517,0.894-1.08,1.619-1.688,2.176
	c-0.608,0.559-1.217,0.838-1.826,0.838c-0.588,0-1.03-0.213-1.323-0.639c-0.295-0.427-0.441-1.115-0.441-2.07
	c0-1.075,0.132-2.115,0.396-3.119c0.263-1.004,0.645-1.893,1.142-2.663c0.496-0.771,1.1-1.385,1.811-1.842
	c0.71-0.457,1.511-0.685,2.403-0.685c0.405,0,0.786,0.029,1.142,0.092c0.355,0.06,0.613,0.121,0.776,0.182L222.048,44.186z
	 M220.801,40.473c-1.4,0-2.644,0.305-3.729,0.913c-1.085,0.609-2.003,1.415-2.754,2.419c-0.75,1.006-1.323,2.157-1.719,3.455
	c-0.396,1.299-0.593,2.648-0.593,4.049c0,1.359,0.304,2.461,0.912,3.301c0.608,0.844,1.521,1.265,2.738,1.265
	c0.67,0,1.269-0.134,1.796-0.396c0.527-0.265,1.004-0.613,1.431-1.051c0.426-0.436,0.811-0.979,1.156-1.538
	c0.345-0.558,0.669-1.083,0.974-1.797h0.061c-0.182,0.714-0.33,1.446-0.441,2.125c-0.111,0.681-0.219,1.442-0.319,2.156h2.495
	c0,0,0.062-0.647,0.183-1.774c0.122-1.126,0.366-2.68,0.731-4.729l1.398-7.775c-0.304-0.101-0.827-0.224-1.566-0.387
	C222.813,40.545,221.896,40.473,220.801,40.473 M206.681,40.473c-0.73,0-1.385,0.137-1.962,0.41
	c-0.578,0.275-1.102,0.63-1.568,1.066c-0.467,0.436-0.887,1.087-1.262,1.635c-0.376,0.548-0.716,1.089-1.02,1.802h-0.062
	c0.062-0.713,0.091-0.938,0.091-1.345c0-0.447-0.05-0.952-0.151-1.357c-0.102-0.406-0.269-0.806-0.503-1.121
	c-0.232-0.314-0.538-0.588-0.912-0.781c-0.376-0.192-0.848-0.299-1.415-0.299c-0.751,0-1.426,0.152-2.023,0.467
	c-0.6,0.315-1.137,0.709-1.613,1.185c-0.477,0.478-0.888,1.06-1.232,1.618c-0.346,0.559-0.64,0.921-0.883,1.634h-0.061
	c0.081-0.713,0.167-0.757,0.259-1.163s0.177-0.85,0.259-1.267c0.08-0.415,0.152-0.699,0.213-1.056
	c0.061-0.354,0.111-0.795,0.152-0.795h-2.435l-2.647,14.269h2.526l0.272-1.517c0.346-1.906,0.762-3.531,1.248-4.942
	c0.487-1.409,1.004-2.554,1.553-3.468c0.548-0.912,1.12-1.584,1.719-2.031c0.599-0.445,1.182-0.665,1.75-0.665
	c0.567,0,0.947,0.2,1.142,0.596c0.192,0.396,0.289,0.859,0.289,1.386c0,0.447-0.051,0.856-0.153,1.364l-1.673,9.277h2.525
	l0.273-1.517c0.346-1.886,0.757-3.496,1.232-4.896c0.477-1.4,0.995-2.545,1.553-3.468s1.142-1.605,1.749-2.062
	c0.609-0.455,1.217-0.681,1.826-0.681c0.527,0,0.883,0.18,1.065,0.535c0.183,0.356,0.273,0.798,0.273,1.325
	c0,0.244-0.015,0.492-0.046,0.746c-0.03,0.254-0.066,0.455-0.106,0.739l-1.674,9.277h2.526l1.765-9.765
	c0.04-0.283,0.076-0.528,0.107-0.803c0.03-0.273,0.045-0.525,0.045-0.789c0-1.097-0.243-1.955-0.729-2.595
	C208.477,40.783,207.716,40.473,206.681,40.473 M302.505,20.575c-0.79,0-1.445-0.137-1.963-0.41
	c-0.517-0.275-0.969-0.553-1.354-0.837l-1.278,1.795c0.345,0.305,0.888,0.635,1.628,0.989c0.74,0.355,1.679,0.533,2.814,0.533
	c1.644,0,2.886-0.385,3.728-1.157c0.843-0.771,1.264-1.714,1.264-2.83c0-0.487-0.062-0.923-0.184-1.309
	c-0.121-0.385-0.299-0.75-0.532-1.096c-0.232-0.345-0.513-0.7-0.837-1.065c-0.323-0.365-0.699-0.771-1.126-1.217
	c-0.648-0.69-1.136-1.238-1.461-1.644c-0.324-0.406-0.486-0.852-0.486-1.339c0-0.528,0.183-0.933,0.549-1.218
	c0.365-0.284,0.871-0.426,1.521-0.426c0.669,0,1.212,0.097,1.628,0.289c0.416,0.193,0.735,0.371,0.958,0.533l1.248-1.826
	c-0.405-0.305-0.897-0.563-1.475-0.776c-0.579-0.213-1.294-0.32-2.146-0.32c-1.46,0-2.616,0.346-3.469,1.035
	c-0.852,0.69-1.278,1.634-1.278,2.831c0,0.832,0.202,1.547,0.609,2.145c0.405,0.599,0.953,1.253,1.643,1.963
	c0.365,0.366,0.689,0.701,0.974,1.005c0.285,0.304,0.528,0.589,0.73,0.852c0.202,0.264,0.36,0.523,0.473,0.776
	c0.11,0.254,0.167,0.523,0.167,0.807c0,0.568-0.203,1.03-0.609,1.385S303.255,20.575,302.505,20.575 M290.911,20.836
	c0.65-3.633,1.537-6.421,2.663-8.227c1.126-1.805,2.308-2.743,3.545-2.743c0.202,0,0.375-0.002,0.518,0.028
	c0.142,0.031,0.284,0.058,0.426,0.098l0.974-2.439c-0.203-0.102-0.416-0.18-0.639-0.231c-0.223-0.05-0.518-0.077-0.882-0.077
	c-0.548,0-1.08,0.152-1.599,0.456c-0.517,0.305-0.999,0.7-1.445,1.187c-0.446,0.487-0.853,1.191-1.217,1.779
	c-0.365,0.589-0.681,1.188-0.943,1.902h-0.062c0.143-0.714,0.31-1.483,0.503-2.345c0.192-0.862,0.34-1.936,0.441-2.649h-2.435
	l-2.647,14.982h2.525L290.911,20.836z M278.419,12.555c0.315-0.639,0.681-1.187,1.097-1.643c0.416-0.457,0.872-0.817,1.369-1.081
	c0.497-0.263,1.009-0.396,1.536-0.396c1.218,0,1.826,0.498,1.826,1.492c0,0.507-0.173,0.964-0.517,1.369
	c-0.346,0.407-0.812,0.762-1.401,1.066c-0.588,0.304-1.283,0.563-2.084,0.776c-0.801,0.213-1.658,0.37-2.57,0.472
	C277.857,13.879,278.105,13.194,278.419,12.555 M276.062,21.047c0.406,0.497,0.922,0.888,1.552,1.172
	c0.629,0.284,1.369,0.426,2.221,0.426c0.689,0,1.314-0.076,1.872-0.228c0.559-0.153,1.065-0.34,1.521-0.563
	c0.457-0.224,0.856-0.461,1.202-0.716c0.345-0.253,0.639-0.491,0.883-0.715l-1.339-1.704c-0.406,0.406-0.939,0.796-1.599,1.171
	c-0.659,0.376-1.395,0.564-2.206,0.564c-0.933,0-1.577-0.305-2.023-0.914c-0.447-0.608-0.625-1.48-0.625-2.617v-0.456
	c1.427-0.142,2.344-0.355,3.47-0.64c1.126-0.284,2.103-0.654,2.976-1.111c0.871-0.456,1.561-1.014,2.088-1.674
	c0.527-0.659,0.786-1.445,0.786-2.358c0-1.157-0.379-2.019-1.13-2.588c-0.751-0.567-1.705-0.852-2.861-0.852
	c-1.096,0-2.13,0.264-3.104,0.791c-0.974,0.528-1.821,1.244-2.541,2.146c-0.721,0.903-1.294,1.964-1.72,3.181
	c-0.426,1.217-0.639,2.516-0.639,3.896c0,0.73,0.101,1.42,0.304,2.07C275.351,19.977,275.655,20.55,276.062,21.047 M272.44,1.461
	c-0.487,0-0.903,0.173-1.248,0.518c-0.345,0.345-0.517,0.76-0.517,1.247c0,0.468,0.172,0.873,0.517,1.218s0.761,0.517,1.248,0.517
	s0.902-0.172,1.247-0.517s0.517-0.75,0.517-1.218c0-0.487-0.172-0.902-0.517-1.247C273.343,1.634,272.928,1.461,272.44,1.461
	 M270.341,22.557l2.646-14.982h-2.525l-2.647,14.982H270.341z M267.085,9.715l0.334-2.14h-3.56l0.396-2.037
	c0.161-0.954,0.461-1.729,0.897-2.358c0.437-0.629,1.172-0.936,2.207-0.936c0.588,0,1.115,0.091,1.582,0.263
	c0.466,0.173,0.811,0.342,1.034,0.504l1.096-2.068c-0.285-0.183-0.735-0.385-1.354-0.608C269.099,0.111,268.353,0,267.48,0
	c-1.664,0-2.951,0.462-3.865,1.385c-0.912,0.923-1.532,2.248-1.855,3.972c-0.081,0.426-0.152,0.812-0.214,1.156
	c-0.041,0.163-0.07,0.31-0.091,0.442c-0.02,0.132-0.041,0.216-0.061,0.317c-0.021,0.122-0.041,0.303-0.062,0.303h-2.83l-0.335,2.14
	h2.83l-2.586,13.892c-0.081,0.466-0.188,0.883-0.318,1.299c-0.134,0.416-0.311,0.779-0.533,1.114
	c-0.224,0.335-0.498,0.593-0.822,0.786c-0.324,0.192-0.71,0.286-1.156,0.286c-0.405,0-0.766-0.047-1.08-0.139
	c-0.313-0.091-0.604-0.188-0.867-0.289l-0.821,2.069c0.345,0.141,0.72,0.268,1.126,0.38c0.405,0.111,0.903,0.168,1.491,0.168
	c0.852,0,1.587-0.123,2.206-0.366c0.618-0.244,1.146-0.604,1.582-1.08c0.437-0.478,0.791-1.071,1.064-1.781
	c0.274-0.71,0.502-1.494,0.686-2.447l2.525-13.892H267.085z M255.674,7.575h-2.526L250.5,22.557h2.525L255.674,7.575z
	 M255.125,4.961c0.487,0,0.903-0.172,1.248-0.517c0.346-0.345,0.518-0.75,0.518-1.218c0-0.487-0.172-0.902-0.518-1.247
	c-0.345-0.345-0.761-0.518-1.248-0.518c-0.486,0-0.902,0.173-1.248,0.518c-0.344,0.345-0.516,0.76-0.516,1.247
	c0,0.468,0.172,0.873,0.516,1.218C254.223,4.789,254.639,4.961,255.125,4.961 M246.483,22.097c0.689-0.365,1.298-0.781,1.826-1.248
	l-1.157-1.735c-0.345,0.264-0.74,0.554-1.186,0.868c-0.447,0.315-0.935,0.472-1.462,0.472c-0.324,0-0.548-0.087-0.67-0.259
	c-0.121-0.172-0.182-0.421-0.182-0.746c0-0.202,0.021-0.431,0.061-0.685c0.041-0.253,0.092-0.484,0.152-0.788l1.522-8.261h3.65
	l0.365-2.14h-3.621l0.853-4.685l-2.679,0.653l-0.729,4.032h-2.557l-0.365,2.14h2.525l-1.611,8.717
	c-0.042,0.285-0.076,0.52-0.107,0.752c-0.031,0.234-0.046,0.45-0.046,0.673c0,0.913,0.228,1.602,0.685,2.079
	c0.456,0.476,1.202,0.712,2.236,0.712C244.961,22.648,245.793,22.462,246.483,22.097 M228.438,15.629
	c0.507-1.41,1.049-2.566,1.628-3.469c0.578-0.903,1.176-1.568,1.795-1.994c0.619-0.426,1.202-0.639,1.75-0.639
	c0.932,0,1.4,0.599,1.4,1.795c0,0.183-0.012,0.381-0.031,0.594c-0.021,0.213-0.051,0.57-0.091,0.793l-1.704,9.848h2.524
	l1.797-10.031c0.039-0.284,0.075-0.627,0.105-0.891c0.031-0.263,0.046-0.552,0.046-0.795c0-1.116-0.259-2.006-0.775-2.635
	c-0.518-0.629-1.294-0.952-2.327-0.952c-0.792,0-1.503,0.163-2.131,0.498c-0.629,0.334-1.187,0.743-1.674,1.23
	c-0.486,0.487-0.914,0.885-1.278,1.452c-0.365,0.569-0.669,1.422-0.912,1.422h-0.062c0.081,0,0.172-0.601,0.274-1.027
	c0.101-0.426,0.192-0.777,0.272-1.183c0.081-0.406,0.152-0.792,0.215-1.157c0.06-0.365,0.109-0.913,0.151-0.913h-2.435
	l-2.647,14.982h2.525l0.274-1.721C227.494,18.867,227.931,17.04,228.438,15.629 M214.639,12.555
	c0.313-0.639,0.679-1.187,1.095-1.643c0.416-0.457,0.873-0.817,1.37-1.081c0.497-0.263,1.009-0.396,1.536-0.396
	c1.218,0,1.826,0.498,1.826,1.492c0,0.507-0.173,0.964-0.518,1.369c-0.345,0.407-0.811,0.762-1.399,1.066
	c-0.589,0.304-1.283,0.563-2.085,0.776c-0.802,0.213-1.658,0.37-2.57,0.472C214.075,13.879,214.323,13.194,214.639,12.555
	 M213.831,22.219c0.629,0.284,1.37,0.426,2.223,0.426c0.688,0,1.312-0.076,1.871-0.228c0.558-0.153,1.065-0.34,1.521-0.563
	c0.456-0.224,0.857-0.461,1.202-0.716c0.345-0.253,0.639-0.491,0.882-0.715l-1.339-1.704c-0.406,0.406-0.938,0.796-1.597,1.171
	c-0.66,0.376-1.396,0.564-2.207,0.564c-0.933,0-1.791-0.305-2.237-0.914c-0.446-0.608-0.837-1.48-0.837-2.617v-0.456
	c1.427-0.142,2.557-0.355,3.683-0.64c1.125-0.284,2.209-0.654,3.081-1.111c0.872-0.456,1.614-1.014,2.143-1.674
	c0.526-0.659,0.812-1.445,0.812-2.358c0-1.157-0.365-2.019-1.115-2.588c-0.751-0.567-1.698-0.852-2.855-0.852
	c-1.095,0-2.127,0.264-3.102,0.791c-0.974,0.528-1.819,1.244-2.538,2.146c-0.722,0.903-1.295,1.964-1.72,3.181
	c-0.427,1.217-0.639,2.516-0.639,3.896c0,0.73,0.101,1.42,0.304,2.07c0.203,0.649,0.508,1.222,0.914,1.719
	C212.686,21.544,213.202,21.935,213.831,22.219 M206.469,10.957c-0.184,1.157-0.478,2.298-0.884,3.425
	c-0.405,1.126-0.871,2.135-1.399,3.028c-0.528,0.893-1.116,1.613-1.765,2.161c-0.649,0.548-1.309,0.822-1.978,0.822
	c-0.589,0-1.01-0.269-1.263-0.807c-0.254-0.537-0.381-1.232-0.381-2.085c0-1.075,0.132-2.105,0.396-3.089
	c0.263-0.984,0.649-1.857,1.157-2.618c0.506-0.761,1.109-1.364,1.81-1.811c0.7-0.446,1.495-0.669,2.39-0.669
	c0.466,0,0.897,0.035,1.293,0.106c0.395,0.072,0.674,0.137,0.837,0.198L206.469,10.957z M207.076,7.525
	c-0.203-0.04-0.461-0.11-0.774-0.171c-0.315-0.061-0.768-0.101-1.355-0.101c-1.319,0-2.515,0.28-3.59,0.848
	c-1.076,0.568-1.994,1.332-2.755,2.296c-0.76,0.964-1.35,2.089-1.765,3.377c-0.416,1.289-0.625,2.662-0.625,4.123
	c0,0.65,0.071,1.263,0.215,1.842c0.141,0.578,0.359,1.08,0.653,1.506c0.294,0.426,0.669,0.766,1.126,1.019
	c0.456,0.254,1.008,0.381,1.659,0.381c0.648,0,1.242-0.137,1.78-0.411c0.537-0.274,1.034-0.629,1.491-1.065
	c0.456-0.436,0.872-0.764,1.247-1.332s0.726-1.561,1.05-1.561h0.061c-0.183,0.713-0.33,1.436-0.44,2.125
	c-0.112,0.69-0.219,1.442-0.32,2.156h2.465c0-0.714,0.065-0.854,0.198-1.979c0.132-1.126,0.38-2.745,0.745-4.795l2.77-15.341h-2.525
	L207.076,7.525z M194.966,1.867h-2.708l-3.622,20.69h2.708L194.966,1.867z M144.694,41.658c-3.026,3.027-7.566,4.44-13.617,4.44
	h-5.515V11.142h5.113c6.373,0,11.059,1.282,14.059,4.04c2.999,2.759,4.499,7.04,4.499,13.038S147.721,38.634,144.694,41.658
	 M153.813,9.1c-2.52-2.303-5.705-4.085-9.562-5.344c-3.855-1.258-8.408-1.889-13.656-1.889h-16.448v53.507h16.046
	c5.302,0,9.908-0.709,13.818-2.128c3.909-1.419,7.137-3.361,9.681-5.824s4.432-5.37,5.664-8.717
	c1.232-3.348,1.848-6.95,1.848-10.806s-0.602-7.377-1.808-10.565C158.191,14.148,156.33,11.403,153.813,9.1 M89.179,55.374H99.88
	V1.868H89.179V55.374z M77.764,9.1V1.867H40.665v9.275h23.409L39.238,47.984v7.39h39.238v-9.275H53.068L77.764,9.1z M11.415,31.831
	h17.122V23.27H11.415V11.142h19.263V1.867H0v53.507h31.392v-9.275H11.415V31.831z"/>
</svg>
