<?xml version="1.0" encoding="UTF-8" standalone="no"?>
<svg xmlns:inkscape="http://www.inkscape.org/namespaces/inkscape" xmlns:rdf="http://www.w3.org/1999/02/22-rdf-syntax-ns#" xmlns="http://www.w3.org/2000/svg" sodipodi:docname="radioCheck.svg" height="17.9pt" width="17.7pt" version="1.1" xmlns:cc="http://creativecommons.org/ns#" xmlns:dc="http://purl.org/dc/elements/1.1/" inkscape:version="0.91 r13725" viewBox="0 0 17.729391 17.866169" xmlns:sodipodi="http://sodipodi.sourceforge.net/DTD/sodipodi-0.dtd">
<sodipodi:namedview fit-margin-left="0" inkscape:zoom="0.83434343" borderopacity="1" inkscape:current-layer="svg3336" inkscape:cx="7.6507822" inkscape:guide-bbox="true" inkscape:window-maximized="1" showgrid="false" fit-margin-right="0" showguides="true" bordercolor="#666666" inkscape:window-x="-9" guidetolerance="10" objecttolerance="10" inkscape:window-y="-9" fit-margin-bottom="0" inkscape:window-width="1920" inkscape:pageopacity="0" inkscape:pageshadow="2" pagecolor="#ffffff" gridtolerance="10" inkscape:cy="-277.74914" inkscape:window-height="1019" fit-margin-top="0">
<sodipodi:guide position="0.40000049,20.273898" orientation="1,0"/>
<sodipodi:guide position="11.481632,34.500942" orientation="0,1"/>
<sodipodi:guide position="12.074881,17.466172" orientation="0,1"/>
<sodipodi:guide position="17.329391,26.534432" orientation="1,0"/>
<sodipodi:guide position="11.078512,0.40000223" orientation="0,1"/>
</sodipodi:namedview>
<g>
<path d="m17.1 8.98c0 4.55-3.69 8.25-8.25 8.25-4.55 0-8.25-3.69-8.25-8.25 0-4.55 3.69-8.24 8.25-8.24 4.55 0 8.25 3.69 8.25 8.24" inkscape:connector-curvature="0" fill="#7F8285"/>
<path d="m14.9 8.98c0 3.34-2.71 6.05-6.05 6.05s-6.05-2.71-6.05-6.05 2.71-6.04 6.05-6.04 6.05 2.71 6.05 6.04" inkscape:connector-curvature="0" fill="#fff"/>
<path d="m13.6-28.5c0 3.34-2.71 6.05-6.05 6.05s-6.05-2.71-6.05-6.05 2.71-6.04 6.05-6.04 6.05 2.71 6.05 6.04" inkscape:connector-curvature="0" fill="#fff"/>
<path d="m13 8.98c0 2.28-1.84 4.13-4.12 4.13s-4.12-1.85-4.12-4.13c0-2.27 1.84-4.12 4.12-4.12s4.12 1.85 4.12 4.12" inkscape:connector-curvature="0" fill="#7F8285"/>
</g>
</svg>
