<?xml version="1.0" encoding="UTF-8" standalone="no"?>
<!--
  - Copyright©2021, Regents of the University of California
  - http://creativecommons.org/licenses/BSD
  -->

<svg xmlns:rdf="http://www.w3.org/1999/02/22-rdf-syntax-ns#" xmlns="http://www.w3.org/2000/svg" height="26.747pt" width="30.021pt" version="1.1" xmlns:cc="http://creativecommons.org/ns#" xmlns:dc="http://purl.org/dc/elements/1.1/" viewBox="0 0 30.021363 26.746569">
 <g fill="#287d8f">
  <path d="m15.298 9.1455c-1.0781 0-1.9453 0.875-1.9453 1.9453s0.86719 1.9531 1.9453 1.9531 1.9453-0.88281 1.9453-1.9531-0.86719-1.9453-1.9453-1.9453"/>
  <path d="m29.114 11.149c0-5.6211-6.3086-10.188-14.07-10.188-7.7539 0-14.062 4.5664-14.062 10.188 0 5.5469 6.0469 9.7305 14.062 9.7305 0.21484 0 0.42969-0.0039 0.66406-0.01563 2.3281 1.5859 3.7617 2.7383 4.8203 3.5898 0.47265 0.38281 0.8789 0.70312 1.25 0.97656 0.28125 0.19922 0.58203 0.40234 0.98437 0.40234 0.21484 0 0.4375-0.05078 0.63281-0.14453 0.48047-0.24219 0.71485-0.71875 0.6875-1.4141-0.0195-0.59766-0.11328-1.1211-0.21875-1.7227-0.14453-0.8125-0.3125-1.8203-0.41406-3.4727 3.6523-1.9531 5.6641-4.7578 5.6641-7.9297m-8.4258 7.2578c0.0508 1.1602 0.29688 2.2109 0.51172 3.1328 0.0391 0.17969 0.0781 0.35938 0.125 0.53125-0.32031-0.26562-0.63672-0.53516-0.97656-0.82031-1.1602-0.98438-2.3555-2-3.4453-2.7344-0.23047-0.15625-0.50391-0.23828-0.78907-0.23828-0.0312 0-0.0586 0-0.0859 0.0039-0.36329 0.01953-0.67579 0.03125-0.98438 0.03125-6.457 0-11.336-3.0898-11.336-7.1641 0-4.207 5.0859-7.625 11.336-7.625 6.2578 0 11.34 3.418 11.34 7.625 0 2.3633-1.8555 4.6328-4.9688 6.0625-0.46484 0.21484-0.7539 0.68359-0.72656 1.1953"/>
  <path d="m9.6844 9.1455c-1.0742 0-1.9414 0.875-1.9414 1.9453s0.86719 1.9531 1.9414 1.9531c1.0781 0 1.9531-0.88281 1.9531-1.9531s-0.875-1.9453-1.9531-1.9453"/>
  <path d="m20.903 9.1455c-1.0742 0-1.9414 0.875-1.9414 1.9453s0.86719 1.9531 1.9414 1.9531 1.9414-0.88281 1.9414-1.9531-0.86719-1.9453-1.9414-1.9453"/>
 </g>
</svg>
