<?xml version="1.0" encoding="UTF-8" standalone="no"?>
<!--
  - Copyright©2021, Regents of the University of California
  - http://creativecommons.org/licenses/BSD
  -->

<svg id="svg3336" xmlns:rdf="http://www.w3.org/1999/02/22-rdf-syntax-ns#" xmlns="http://www.w3.org/2000/svg" height="31.952pt" width="32.289pt" version="1.1" xmlns:cc="http://creativecommons.org/ns#" xmlns:dc="http://purl.org/dc/elements/1.1/" viewBox="0 0 32.288552 31.951525">
 <metadata id="metadata5540">
  <rdf:RDF>
   <cc:Work rdf:about="">
    <dc:format>image/svg+xml</dc:format>
    <dc:type rdf:resource="http://purl.org/dc/dcmitype/StillImage"/>
    <dc:title/>
   </cc:Work>
  </rdf:RDF>
 </metadata>
 <defs id="defs3338">
  <clipPath id="clip1">
   <path id="path3341" d="m444 43h3v26.379h-3z"/>
  </clipPath>
  <clipPath id="clip2">
   <path id="path3344" d="m435 58h12v11.379h-12z"/>
  </clipPath>
  <clipPath id="clip3">
   <path id="path3347" d="m444 58h12v11.379h-12z"/>
  </clipPath>
 </defs>
 <g>
  <g id="g5030" transform="translate(-429.44 -38.46)" clip-path="url(#clip1)">
   <path id="path5032" d="m445.61 69.379c-0.59375 0-1.082-0.48438-1.082-1.082v-23.801c0-0.59766 0.48828-1.082 1.082-1.082 0.59765 0 1.082 0.48438 1.082 1.082v23.801c0 0.59766-0.48438 1.082-1.082 1.082" fill="#353a4a"/>
  </g>
  <g id="g5034" transform="translate(-429.44 -38.46)" clip-path="url(#clip2)">
   <path id="path5036" d="m436.95 69.379c-0.27734 0-0.55468-0.10938-0.76562-0.32031-0.42188-0.42188-0.42188-1.1055 0-1.5273l8.6562-8.6562c0.42187-0.42188 1.1055-0.42188 1.5273 0 0.42578 0.42578 0.42578 1.1094 0 1.5312l-8.6523 8.6523c-0.21094 0.21094-0.48828 0.32031-0.76563 0.32031" fill="#353a4a"/>
  </g>
  <g id="g5038" transform="translate(-429.44 -38.46)" clip-path="url(#clip3)">
   <path id="path5040" d="m454.26 69.379c-0.27735 0-0.55469-0.10938-0.76563-0.32031l-8.6523-8.6523c-0.42188-0.42188-0.42188-1.1055 0-1.5312 0.42187-0.42188 1.1055-0.42188 1.5273 0l8.6562 8.6562c0.42188 0.42188 0.42188 1.1055 0 1.5273-0.21093 0.21094-0.48828 0.32031-0.76562 0.32031" fill="#353a4a"/>
  </g>
 </g>
 <g>
  <path id="path5042" d="m18.332 21.18c0 1.1953-0.96875 2.1641-2.1641 2.1641-1.1914 0-2.1602-0.96875-2.1602-2.1641 0-1.1953 0.96875-2.1641 2.1602-2.1641 1.1953 0 2.1641 0.96875 2.1641 2.1641" fill="#3a4754"/>
  <path id="path5044" d="m1.0274 20.098h30.289v-18.391h-30.289z" fill="#dcd4cc"/>
  <path id="path5046" d="m31.313 0.62563h-30.285c-0.30078 0-0.54297 0.24219-0.54297 0.54297s0.24219 0.53906 0.54297 0.53906h30.285c0.30078 0 0.54297-0.23828 0.54297-0.53906s-0.24219-0.54297-0.54297-0.54297" fill="#353a4a"/>
  <path id="path5048" d="m20.758 6.3131c-1.1719-1.1719-2.7969-1.8984-4.5898-1.8984v6.4883z" fill="#d9d9d9"/>
  <path id="path5050" d="m16.168 4.4147c-3.582 0-6.4883 2.9062-6.4883 6.4883 0 3.5859 2.9062 6.4922 6.4883 6.4922 1.793 0 3.418-0.72656 4.5898-1.9023l-4.5898-4.5898z" fill="#287d8f"/>
  <path id="path5052" d="m20.758 6.3131-4.5898 4.5898 4.5898 4.5898c1.1758-1.1719 1.9024-2.7969 1.9024-4.5898 0-1.793-0.72657-3.4141-1.9024-4.5898" fill="#28a6b0"/>
 </g>
</svg>
