<?xml version="1.0" encoding="UTF-8" standalone="no"?>
<!--
  - Copyright©2021, Regents of the University of California
  - http://creativecommons.org/licenses/BSD
  -->

<svg id="svg3336" xmlns:rdf="http://www.w3.org/1999/02/22-rdf-syntax-ns#" xmlns="http://www.w3.org/2000/svg" height="26.787pt" width="34.43pt" version="1.1" xmlns:cc="http://creativecommons.org/ns#" xmlns:dc="http://purl.org/dc/elements/1.1/" viewBox="0 0 34.429767 26.787405">
 <metadata id="metadata5540">
  <rdf:RDF>
   <cc:Work rdf:about="">
    <dc:format>image/svg+xml</dc:format>
    <dc:type rdf:resource="http://purl.org/dc/dcmitype/StillImage"/>
    <dc:title/>
   </cc:Work>
  </rdf:RDF>
 </metadata>
 <path id="path5054" d="m18.617 25.83c2.6992-0.27344 5.1875-1.3906 7.2031-3.2266l-1.8438-3.1953c-1.5117 1.6406-3.5312 2.6602-5.7227 2.8828-0.30468 0.03125-0.61718 0.05078-0.92578 0.05078-0.3125 0-0.61328-0.01563-0.92578-0.05078-4.6484-0.47266-8.1562-4.3555-8.1562-9.0312v-0.27344h4.5234l-4.9453-8.5664-1.0469-1.8125-5.9883 10.379h3.9023v0.27344c0 6.5078 4.8789 11.914 11.344 12.57 0.42188 0.04297 0.85547 0.06641 1.293 0.06641 0.4336 0 0.86719-0.02344 1.2891-0.06641" fill="#28a6b0"/>
 <path id="path5056" d="m21.887 13.533h4.5234v-0.27344c0-4.6797-3.5078-8.5625-8.1562-9.0352-0.30078-0.03125-0.61328-0.04687-0.92578-0.04687-0.3164 0-0.61718 0.01563-0.92578 0.04687-2.1914 0.22266-4.2109 1.2422-5.7226 2.8789l-1.8546-3.1804c2.0234-1.8438 4.5117-2.9609 7.2109-3.2383 0.41797-0.04297 0.85157-0.0625 1.293-0.0625 0.44141 0 0.875 0.01953 1.2891 0.0625 6.4688 0.66016 11.348 6.0625 11.348 12.57v0.27344l0.27344 0.0039h3.6289l-5.9883 10.375z" fill="#287d8f"/>
</svg>
