<?xml version="1.0" encoding="UTF-8" standalone="no"?>
<!--
  - Copyright©2021, Regents of the University of California
  - http://creativecommons.org/licenses/BSD
  -->

<svg id="svg3336" xmlns:rdf="http://www.w3.org/1999/02/22-rdf-syntax-ns#" xmlns="http://www.w3.org/2000/svg" height="33.022pt" width="18.056pt" version="1.1" xmlns:cc="http://creativecommons.org/ns#" xmlns:dc="http://purl.org/dc/elements/1.1/" viewBox="0 0 18.055725 33.022137">
 <metadata id="metadata5540">
  <rdf:RDF>
   <cc:Work rdf:about="">
    <dc:format>image/svg+xml</dc:format>
    <dc:type rdf:resource="http://purl.org/dc/dcmitype/StillImage"/>
    <dc:title/>
   </cc:Work>
  </rdf:RDF>
 </metadata>
 <g>
  <path id="path5058" d="m8.0667 32.346h1.9219v-15.426h-1.9219z" fill="#474c57"/>
  <path id="path5060" d="m10.95 31.865c0 0.26562-0.21485 0.48047-0.48047 0.48047h-2.8828c-0.26563 0-0.48047-0.21484-0.48047-0.48047v-10.578c0-0.26172 0.21484-0.48047 0.48047-0.48047h2.8828c0.26562 0 0.48047 0.21875 0.48047 0.48047z" fill="#353a4a"/>
  <path id="path5062" d="m15.145 3.1503c-1.563-1.5664-3.727-2.5352-6.1173-2.5352v8.6523z" fill="#287d8f"/>
  <path id="path5064" d="m9.0277 0.61514c-4.7773 0-8.6523 3.875-8.6523 8.6523 0 4.7813 3.875 8.6563 8.6523 8.6563 2.3906 0 4.5508-0.96875 6.1172-2.5352l-6.1173-6.1215z" fill="#28a6b0"/>
  <path id="path5066" d="m17.68 9.2675c0-2.3867-0.96875-4.5508-2.5352-6.1172l-6.1172 6.1172 6.1172 6.1211c1.5664-1.5664 2.5352-3.7305 2.5352-6.1211" fill="#f0eeee"/>
  <path id="path5068" d="m9.0277 2.537c3.7109 0 6.7305 3.0195 6.7305 6.7305 0 3.7109-3.0195 6.7344-6.7305 6.7344-3.7109 0-6.7305-3.0234-6.7305-6.7344 0-3.7109 3.0195-6.7305 6.7305-6.7305m0-1.9219c-4.7773 0-8.6523 3.875-8.6523 8.6523 0 4.7813 3.875 8.6563 8.6523 8.6563 4.7774 0 8.6524-3.875 8.6524-8.6563 0-4.7773-3.875-8.6523-8.6524-8.6523" fill="#353a4a"/>
  <path id="path5070" d="m9.0277 3.5019v1.9219c0.53125 0 0.96094-0.42969 0.96094-0.96094s-0.42969-0.96094-0.96094-0.96094" fill="#28a6b0"/>
  <path id="path5072" d="m9.0277 3.5019c-3.1797 0-5.7695 2.5859-5.7695 5.7656 0 0.53125 0.42969 0.96484 0.96094 0.96484s0.96094-0.43359 0.96094-0.96484c0-2.1211 1.7266-3.8437 3.8476-3.8437z" fill="#97ccd1"/>
 </g>
</svg>
