<!--
  - Copyright©2021, Regents of the University of California
  - http://creativecommons.org/licenses/BSD
  -->

<svg xmlns:inkscape="http://www.inkscape.org/namespaces/inkscape" xmlns:rdf="http://www.w3.org/1999/02/22-rdf-syntax-ns#" xmlns="http://www.w3.org/2000/svg" sodipodi:docname="External_link_font_awesome_opt.svg" height="100%" width="100%" version="1.1" xmlns:cc="http://creativecommons.org/ns#" xmlns:dc="http://purl.org/dc/elements/1.1/" inkscape:version="0.91 r13725" viewBox="0 -256 1850 1850" xmlns:sodipodi="http://sodipodi.sourceforge.net/DTD/sodipodi-0.dtd">
<sodipodi:namedview bordercolor="#666666" inkscape:pageshadow="2" guidetolerance="10" pagecolor="#ffffff" gridtolerance="10" inkscape:window-maximized="1" inkscape:zoom="0.13169643" objecttolerance="10" borderopacity="1" inkscape:current-layer="svg3025" inkscape:cx="896" inkscape:cy="896" inkscape:window-y="25" inkscape:window-x="0" inkscape:window-width="698" showgrid="false" inkscape:pageopacity="0" inkscape:window-height="480"/>
<g transform="matrix(1 0 0 -1 30.4 1.43e3)">
<path inkscape:connector-curvature="0" fill="currentColor" d="m1.41e3 608v-320q0-119-90-204-80-84-200-84h-832q-119 0-204 84.5-84 84.5-84 204v832q0 120 84.5 200 84.5 90 204 90h704q14 0 23-9t9-23v-64q0-14-9-23t-23-9h-700q-66 0-113-47t-47-113v-842q0-66 47-113t113-47h832q66 0 113 47t47 113v320q0 14 9 23t23 9h64q14 0 23-9t9-23zm384 864v-510q0-26-19-45t-45-19-45 19l-170 175-655-651q-10-10-23-10t-23 10l-114 114q-10 10-10 23t10 23l652 652-176 176q-19 19-19 45t19 45 45 19h512q26 0 45-19t19-45z"/>
</g>
</svg>
