<?xml version="1.0" encoding="UTF-8" standalone="no"?>
<!--
  - Copyright©2021, Regents of the University of California
  - http://creativecommons.org/licenses/BSD
  -->

<svg id="svg3336" xmlns:rdf="http://www.w3.org/1999/02/22-rdf-syntax-ns#" xmlns="http://www.w3.org/2000/svg" height="34.466pt" width="34.644pt" version="1.1" xmlns:cc="http://creativecommons.org/ns#" xmlns:dc="http://purl.org/dc/elements/1.1/" viewBox="0 0 34.643967 34.465842">
 <metadata id="metadata5540">
  <rdf:RDF>
   <cc:Work rdf:about="">
    <dc:format>image/svg+xml</dc:format>
    <dc:type rdf:resource="http://purl.org/dc/dcmitype/StillImage"/>
    <dc:title/>
   </cc:Work>
  </rdf:RDF>
 </metadata>
 <path id="path5198" d="m17.423 33.468c8.9453 0 16.199-7.2539 16.199-16.199 0-8.9453-7.2539-16.199-16.199-16.199-8.9453 0-16.199 7.2539-16.199 16.199 0 8.9453 7.2539 16.199 16.199 16.199" fill="#b39961"/>
 <path id="path5200" d="m27.659 11.085c-0.73437 0.32422-1.5234 0.54688-2.3516 0.64453 0.84375-0.5039 1.4922-1.3086 1.8008-2.2617-0.79297 0.46875-1.668 0.8086-2.5976 0.99219-0.7461-0.79688-1.8086-1.293-2.9844-1.293-2.2617 0-4.0898 1.832-4.0898 4.0899 0 0.32031 0.0351 0.63281 0.10547 0.93359-3.4024-0.17187-6.4141-1.8008-8.4297-4.2734-0.35156 0.60548-0.55469 1.3047-0.55469 2.0547 0 1.4219 0.72266 2.6719 1.8203 3.4062-0.67187-0.0234-1.3008-0.20703-1.8516-0.51172v0.0508c0 1.9805 1.4062 3.6328 3.2773 4.0117-0.34375 0.0898-0.70312 0.14063-1.0742 0.14063-0.26563 0-0.52344-0.0234-0.77344-0.0742 0.52344 1.625 2.0312 2.8086 3.8242 2.8438-1.4024 1.0938-3.1641 1.75-5.082 1.75-0.32813 0-0.65625-0.0195-0.97657-0.0586 1.8125 1.1602 3.9609 1.8359 6.2695 1.8359 7.5234 0 11.637-6.2305 11.637-11.633 0-0.17969-0.004-0.35547-0.0117-0.53125 0.80079-0.57422 1.4922-1.2969 2.043-2.1172" fill="#fff"/>
</svg>
