<?xml version="1.0" encoding="UTF-8" standalone="no"?>
<!--
  - Copyright©2021, Regents of the University of California
  - http://creativecommons.org/licenses/BSD
  -->

<svg id="svg3336" xmlns:rdf="http://www.w3.org/1999/02/22-rdf-syntax-ns#" xmlns="http://www.w3.org/2000/svg" height="34.466pt" width="34.644pt" version="1.1" xmlns:cc="http://creativecommons.org/ns#" xmlns:dc="http://purl.org/dc/elements/1.1/" viewBox="0 0 34.643967 34.465842">
 <metadata id="metadata5540">
  <rdf:RDF>
   <cc:Work rdf:about="">
    <dc:format>image/svg+xml</dc:format>
    <dc:type rdf:resource="http://purl.org/dc/dcmitype/StillImage"/>
    <dc:title/>
   </cc:Work>
  </rdf:RDF>
 </metadata>
 <path id="path5210" d="m17.373 33.433c8.9453 0 16.199-7.25 16.199-16.199 0-8.9453-7.2539-16.199-16.199-16.199-8.9453 0-16.199 7.2539-16.199 16.199 0 8.9492 7.2539 16.199 16.199 16.199" fill="#b39961"/>
 <path id="path5212" d="m27.544 13.015c0 0.125-0.0937 0.22657-0.22265 0.22657h-1.2188l-5.5352 11.785c-0.0391 0.0742-0.11719 0.12891-0.20703 0.12891-0.0859 0-0.16406-0.0508-0.20313-0.125l-2.625-5.2109-2.8359 5.2148c-0.0391 0.0742-0.11329 0.12109-0.20704 0.12109-0.0859 0-0.16015-0.0547-0.19921-0.12891l-5.5938-11.785h-1.2695c-0.125 0-0.22656-0.10157-0.22656-0.22657v-0.59765c0-0.1211 0.10156-0.22266 0.22656-0.22266h4.5156c0.12109 0 0.22266 0.10156 0.22266 0.22266v0.59765c0 0.125-0.10157 0.22657-0.22266 0.22657h-0.97266l3.8633 8.9102 2.0078-3.7539-2.5469-5.1562h-0.61328c-0.125 0-0.22266-0.10157-0.22266-0.22657v-0.59765c0-0.1211 0.0977-0.22266 0.22266-0.22266h3.3438c0.12109 0 0.22266 0.10156 0.22266 0.22266v0.59765c0 0.125-0.10157 0.22657-0.22266 0.22657h-0.59375l1.4648 3.2109 1.75-3.2109h-1.0703c-0.125 0-0.22656-0.10157-0.22656-0.22657v-0.59765c0-0.1211 0.10156-0.22266 0.22656-0.22266h3.2422c0.125 0 0.22656 0.10156 0.22656 0.22266v0.59765c0 0.125-0.10156 0.22657-0.22656 0.22657h-0.71094l-2.5469 4.6289 2.0742 4.2695 4.0078-8.8984h-1.2695c-0.1211 0-0.22266-0.10157-0.22266-0.22657v-0.59765c0-0.1211 0.10156-0.22266 0.22266-0.22266h3.9492c0.1289 0 0.22265 0.10156 0.22265 0.22266z" fill="#fff"/>
</svg>
