<svg xmlns="http://www.w3.org/2000/svg" width="470" height="470" style="fill:#7C182C" xml:space="preserve">
  <path d="M310.4 235.083 459.88 85.527c12.545-12.546 12.545-32.972 0-45.671L429.433 9.409c-12.547-12.546-32.971-12.546-45.67 0L234.282 158.967 85.642 10.327c-12.546-12.546-32.972-12.546-45.67 0L9.524 40.774c-12.546 12.546-12.546 32.972 0 45.671l148.64 148.639L9.678 383.495c-12.546 12.546-12.546 32.971 0 45.67l30.447 30.447c12.546 12.546 32.972 12.546 45.67 0l148.487-148.41 148.792 148.793c12.547 12.546 32.973 12.546 45.67 0l30.447-30.447c12.547-12.546 12.547-32.972 0-45.671L310.4 235.083z"/>
</svg>
