<?xml version="1.0" encoding="utf-8"?>
<!--
  - Copyright©2021, Regents of the University of California
  - http://creativecommons.org/licenses/BSD
  -->

<!-- Generator: Adobe Illustrator 16.0.0, SVG Export Plug-In . SVG Version: 6.00 Build 0)  -->
<!DOCTYPE svg PUBLIC "-//W3C//DTD SVG 1.1//EN" "http://www.w3.org/Graphics/SVG/1.1/DTD/svg11.dtd">
<svg version="1.1" id="Layer_1" xmlns="http://www.w3.org/2000/svg" xmlns:xlink="http://www.w3.org/1999/xlink" x="0px" y="0px"
	 width="45.5px" height="43.5px" viewBox="0 0 45.5 43.5" enable-background="new 0 0 45.5 43.5" xml:space="preserve">
<g>
	<defs>
		<path id="SVGID_1_" d="M4.885,2.896c-1.984,0-1.999,1.969-2,1.999v33.761c0,1.999,2,1.999,2,1.999h35.501c2,0,2-1.999,2-1.999
			V4.896c0-2-2-2-2-2H4.885z"/>
	</defs>
	<clipPath id="SVGID_2_">
		<use xlink:href="#SVGID_1_"  overflow="visible"/>
	</clipPath>

		<linearGradient id="SVGID_3_" gradientUnits="userSpaceOnUse" x1="-141.7783" y1="815.7207" x2="-140.7778" y2="815.7207" gradientTransform="matrix(0 -38.4039 -38.4039 0 31349.4688 -5402.644)">
		<stop  offset="0" style="stop-color:#FAFAF8"/>
		<stop  offset="1" style="stop-color:#EDEAE6"/>
	</linearGradient>
	<rect x="2.885" y="2.896" clip-path="url(#SVGID_2_)" fill="url(#SVGID_3_)" width="39.501" height="37.759"/>
</g>
<g>
	<defs>
		<rect id="SVGID_4_" x="-397.25" y="-250.5" width="1224" height="792"/>
	</defs>
	<clipPath id="SVGID_5_">
		<use xlink:href="#SVGID_4_"  overflow="visible"/>
	</clipPath>
	<path clip-path="url(#SVGID_5_)" fill="none" stroke="#BEB6AF" d="M4.886,40.656c0,0-2,0-2-2V4.896c0,0,0-2,2-2h35.5c0,0,2,0,2,2
		v33.76c0,0,0,2-2,2H4.886z"/>
	<polygon clip-path="url(#SVGID_5_)" fill="#05788C" points="15.716,26.215 22.236,16.295 23.036,16.295 29.556,26.215
		27.996,27.255 22.636,19.095 17.276,27.255 	"/>
</g>
</svg>
