<?xml version="1.0" encoding="utf-8"?>
<!--
  - Copyright©2021, Regents of the University of California
  - http://creativecommons.org/licenses/BSD
  -->

<!DOCTYPE svg PUBLIC "-//W3C//DTD SVG 1.1//EN" "http://www.w3.org/Graphics/SVG/1.1/DTD/svg11.dtd">
<svg version="1.1" xmlns="http://www.w3.org/2000/svg" xmlns:xlink="http://www.w3.org/1999/xlink" x="0px" y="0px"
	 width="350px" height="284px" viewBox="0 0 350 284" style="fill:rgb(0,119,138);" xml:space="preserve">
<g>
	<g>
		<path d="M91.809,141.088l125.858,125.852c1.796,1.799,3.868,2.703,6.21,2.703c2.338,0,4.406-0.904,6.207-2.703l13.505-13.504
			c1.8-1.8,2.698-3.867,2.698-6.211c0-2.345-0.898-4.412-2.698-6.213L137.447,134.873L243.588,28.731
			c1.801-1.8,2.699-3.872,2.699-6.21c0-2.343-0.898-4.414-2.699-6.215L230.082,2.808c-1.799-1.802-3.867-2.7-6.207-2.7
			c-2.344,0-4.412,0.9-6.208,2.7L91.809,128.66c-1.8,1.799-2.697,3.872-2.697,6.212S90.009,139.284,91.809,141.088z"/>
		<path d="M192.818,134.872c0,2.34,0.896,4.413,2.703,6.216l125.851,125.852c1.8,1.799,3.871,2.703,6.211,2.703
			c2.341,0,4.413-0.904,6.212-2.703l13.503-13.504c1.803-1.801,2.702-3.869,2.702-6.213s-0.899-4.412-2.702-6.212l-106.14-106.139
			l106.14-106.141c1.803-1.8,2.702-3.872,2.702-6.21c0-2.343-0.899-4.414-2.702-6.215L333.797,2.808
			c-1.801-1.802-3.873-2.7-6.213-2.7s-4.412,0.9-6.212,2.7L195.521,128.66C193.715,130.459,192.818,132.532,192.818,134.872z"/>
	</g>
</g>
<g>
	<path d="M34.593,269.643H11.89c-4.18,0-7.567-3.389-7.567-7.568V8.561c0-4.18,3.388-7.567,7.567-7.567h22.703
		c4.18,0,7.567,3.388,7.567,7.567v253.514C42.16,266.254,38.772,269.643,34.593,269.643z"/>
</g>
</svg>
