<?xml version="1.0" encoding="UTF-8" standalone="no"?>
<!--
  - Copyright©2021, Regents of the University of California
  - http://creativecommons.org/licenses/BSD
  -->

<svg id="svg3336" xmlns:rdf="http://www.w3.org/1999/02/22-rdf-syntax-ns#" xmlns="http://www.w3.org/2000/svg" height="35.582pt" width="23.472pt" version="1.1" xmlns:cc="http://creativecommons.org/ns#" xmlns:dc="http://purl.org/dc/elements/1.1/" viewBox="0 0 23.471756 35.582064">
 <metadata id="metadata5540">
  <rdf:RDF>
   <cc:Work rdf:about="">
    <dc:format>image/svg+xml</dc:format>
    <dc:type rdf:resource="http://purl.org/dc/dcmitype/StillImage"/>
    <dc:title/>
   </cc:Work>
  </rdf:RDF>
 </metadata>
 <g>
  <path id="path5190" d="m18.773 13.709c0-5.0039-4.0547-9.0625-9.0625-9.0625-5.0039 0-9.0625 4.0586-9.0625 9.0625 0 0.35938 0.0234 0.71484 0.0625 1.0625h-0.0625v8.0039h2.125v4c0 2.207 1.793 3.9961 4 3.9961h4v4h8v-20h-0.0625c0.0391-0.34766 0.0625-0.70312 0.0625-1.0625" fill="#28a6b0"/>
  <path id="path5192" d="m6.6673 15.522c0 0.70312-0.57032 1.2695-1.2695 1.2695-0.69922 0-1.2656-0.56641-1.2656-1.2695 0-0.69922 0.56641-1.2656 1.2656-1.2656 0.69921 0 1.2695 0.56641 1.2695 1.2656" fill="#fff"/>
  <path id="path5194" d="m22.913 7.2872c0 3.7422-3.0312 6.7734-6.7734 6.7734-3.7383 0-6.7695-3.0313-6.7695-6.7734 0-3.7383 3.0312-6.7734 6.7695-6.7734 3.7422 0 6.7734 3.0352 6.7734 6.7734" fill="#353a4a"/>
  <path id="path5196" d="m18.581 5.0997c0-1.4453-1.2422-2.5625-3.0508-2.5625-0.6211 0-1.1055 0.10547-1.4688 0.25391l-0.082 1.7422c0.35156-0.13281 0.95703-0.25781 1.3906-0.25781 0.82422 0 1.3359 0.25781 1.3359 0.70312 0 0.35156-0.33984 0.44531-1.0117 0.63672-0.83984 0.22656-1.3516 0.63281-1.3516 1.3359 0 0.57812 0.41797 1.2266 1.1211 1.5117 0.1211 0 1.3242-0.20312 1.3242-0.20312-0.14844-0.14844-0.74219-0.60938-0.74219-0.76953 0.0937-0.23047 0.42969-0.33594 0.96875-0.5 0.86719-0.28516 1.5664-0.80859 1.5664-1.8906m-1.4961 5.1328c0-0.73047-0.51563-1.1367-1.2852-1.1367-0.75391 0-1.2695 0.40625-1.2695 1.1367 0 0.74219 0.51562 1.1445 1.2695 1.1445 0.76953 0 1.2852-0.40234 1.2852-1.1445" fill="#fff"/>
 </g>
</svg>
