<!--
  - Copyright©2021, Regents of the University of California
  - http://creativecommons.org/licenses/BSD
  -->

<svg xmlns:inkscape="http://www.inkscape.org/namespaces/inkscape" xmlns:rdf="http://www.w3.org/1999/02/22-rdf-syntax-ns#" xmlns="http://www.w3.org/2000/svg" enable-background="new 0 0 792 612" sodipodi:docname="logoBottom_.svg" xml:space="preserve" height="133" viewBox="0 0 363.83969 133.36642" width="364" version="1.1" y="0px" x="0px" xmlns:cc="http://creativecommons.org/ns#" xmlns:dc="http://purl.org/dc/elements/1.1/" inkscape:version="0.91 r13725" xmlns:sodipodi="http://sodipodi.sourceforge.net/DTD/sodipodi-0.dtd"><sodipodi:namedview fit-margin-left="0" inkscape:zoom="1.2843137" borderopacity="1" inkscape:current-layer="final_logo" inkscape:cx="187.04962" inkscape:guide-bbox="true" inkscape:window-maximized="1" showgrid="false" fit-margin-right="0" showguides="true" bordercolor="#666666" inkscape:window-x="-11" guidetolerance="10" objecttolerance="10" inkscape:window-y="-11" fit-margin-bottom="0" inkscape:window-width="1920" inkscape:pageopacity="0" inkscape:pageshadow="2" pagecolor="#ffffff" gridtolerance="10" inkscape:cy="37.874054" inkscape:window-height="1009" fit-margin-top="0"><sodipodi:guide position="0.50000158,77.583971" orientation="1,0"/><sodipodi:guide position="299.49237,132.86642" orientation="0,1"/><sodipodi:guide position="324.4084,0.50000394" orientation="0,1"/><sodipodi:guide position="363.3397,154.66794" orientation="1,0"/></sodipodi:namedview><g transform="translate(-209 -211)"><g fill="#666"><path inkscape:connector-curvature="0" d="m362 213h1.24v8.07c-0.019 3.03 1.42 4.18 3.81 4.18 2.41 0 3.85-1.15 3.83-4.18v-8.07h1.24v8.34c0 2.68-1.44 4.96-5.07 4.96-3.61 0-5.06-2.28-5.06-4.96v-8.34z"/><path inkscape:connector-curvature="0" d="m376 217h1.15v1.62h0.037c0.419-1.13 1.68-1.9 3.01-1.9 2.65 0 3.45 1.39 3.45 3.63v6.06h-1.15v-5.88c0-1.62-0.529-2.85-2.39-2.85-1.82 0-2.92 1.39-2.96 3.23v5.49h-1.15v-9.42z"/><path inkscape:connector-curvature="0" d="m387 213h1.15v1.84h-1.15v-1.84zm0 3.61h1.15v9.42h-1.15v-9.42z"/><path inkscape:connector-curvature="0" d="m391 217h1.28l2.96 8.27h0.036l2.92-8.27h1.19l-3.52 9.42h-1.22l-3.63-9.42z"/><path inkscape:connector-curvature="0" d="m403 222c0.018 1.68 0.894 3.7 3.1 3.7 1.68 0 2.59-0.985 2.96-2.41h1.15c-0.492 2.14-1.73 3.38-4.1 3.38-2.99 0-4.25-2.3-4.25-4.98 0-2.48 1.26-4.98 4.25-4.98 3.03 0 4.23 2.65 4.14 5.29h-7.25zm6.09-0.967c-0.055-1.73-1.13-3.36-2.99-3.36-1.88 0-2.92 1.64-3.1 3.36h6.1z"/><path inkscape:connector-curvature="0" d="m413 217h1.06v2.21h0.037c0.584-1.52 1.86-2.41 3.56-2.34v1.15c-2.08-0.11-3.5 1.42-3.5 3.38v5.02h-1.15v-9.42z"/><path inkscape:connector-curvature="0" d="m426 220c-0.055-1.42-1.15-2.06-2.46-2.06-1.02 0-2.23 0.401-2.23 1.62 0 1.02 1.17 1.39 1.95 1.59l1.53 0.347c1.31 0.201 2.68 0.967 2.68 2.61 0 2.04-2.02 2.83-3.78 2.83-2.19 0-3.69-1.02-3.87-3.32h1.15c0.091 1.55 1.24 2.35 2.77 2.35 1.08 0 2.57-0.475 2.57-1.79 0-1.1-1.02-1.46-2.06-1.72l-1.48-0.329c-1.5-0.401-2.63-0.913-2.63-2.52 0-1.92 1.88-2.65 3.54-2.65 1.88 0 3.38 0.985 3.45 3.03h-1.15z"/><path inkscape:connector-curvature="0" d="m431 213h1.15v1.84h-1.15v-1.84zm0 3.61h1.15v9.42h-1.15v-9.42z"/><path inkscape:connector-curvature="0" d="m437 217h1.92v0.967h-1.92v6.35c0 0.748 0.109 1.19 0.931 1.24 0.328 0 0.657-0.018 0.985-0.055v0.986c-0.347 0-0.675 0.036-1.02 0.036-1.53 0-2.06-0.511-2.04-2.12v-6.44h-1.64v-0.967h1.64v-2.83h1.15v2.83z"/><path inkscape:connector-curvature="0" d="m441 217h1.22l3.1 8.03 2.9-8.03h1.15l-4.09 10.9c-0.657 1.59-1.04 2.04-2.48 2.04-0.456-0.019-0.693-0.019-0.876-0.091v-0.967c0.274 0.055 0.529 0.091 0.785 0.091 1.02 0 1.26-0.603 1.64-1.48l0.401-1.08-3.76-9.38z"/><path inkscape:connector-curvature="0" d="m467 222c0 2.7-1.57 4.98-4.45 4.98s-4.45-2.28-4.45-4.98 1.57-4.98 4.45-4.98 4.45 2.28 4.45 4.98zm-7.76 0c0 2.01 1.1 4.02 3.3 4.02 2.21 0 3.3-2.01 3.3-4.02s-1.1-4.02-3.3-4.02c-2.21 0-3.3 2.01-3.3 4.02z"/><path inkscape:connector-curvature="0" d="m474 218h-1.86v8.45h-1.15v-8.45h-1.61v-0.967h1.61v-0.857c-0.019-1.62 0.438-2.76 2.28-2.76 0.328 0 0.602 0.019 0.967 0.073v0.985c-0.311-0.055-0.565-0.091-0.84-0.091-1.28 0-1.24 0.803-1.26 1.82v0.821h1.86v0.967z"/><path inkscape:connector-curvature="0" d="m493 217c-0.438-2.01-2.1-3.16-4-3.16-3.45 0-4.91 2.88-4.91 5.73s1.46 5.73 4.91 5.73c2.41 0 3.94-1.86 4.18-4.18h1.24c-0.347 3.19-2.37 5.24-5.42 5.24-4.11 0-6.15-3.23-6.15-6.79s2.04-6.79 6.15-6.79c2.46 0 4.91 1.48 5.24 4.22h-1.24z"/><path inkscape:connector-curvature="0" d="m498 220c0.109-2.21 1.66-3.16 3.81-3.16 1.66 0 3.47 0.511 3.47 3.03v5c0 0.438 0.22 0.693 0.676 0.693 0.128 0 0.273-0.037 0.365-0.073v0.967c-0.256 0.055-0.438 0.073-0.749 0.073-1.17 0-1.35-0.657-1.35-1.64h-0.037c-0.803 1.22-1.62 1.92-3.43 1.92-1.73 0-3.16-0.858-3.16-2.76 0-2.65 2.57-2.74 5.06-3.03 0.949-0.11 1.48-0.237 1.48-1.28 0-1.55-1.11-1.93-2.46-1.93-1.42 0-2.48 0.657-2.52 2.19h-1.15zm6.13 1.39h-0.036c-0.146 0.274-0.657 0.365-0.968 0.42-1.95 0.347-4.38 0.329-4.38 2.17 0 1.15 1.02 1.86 2.1 1.86 1.75 0 3.3-1.11 3.28-2.96v-1.5z"/><path inkscape:connector-curvature="0" d="m509 213h1.15v13h-1.15v-13z"/><path inkscape:connector-curvature="0" d="m514 213h1.15v1.84h-1.15v-1.84zm0 3.61h1.15v9.42h-1.15v-9.42z"/><path inkscape:connector-curvature="0" d="m523 218h-1.86v8.45h-1.15v-8.45h-1.61v-0.967h1.61v-0.857c-0.019-1.62 0.438-2.76 2.28-2.76 0.328 0 0.602 0.019 0.967 0.073v0.985c-0.311-0.055-0.565-0.091-0.84-0.091-1.28 0-1.24 0.803-1.26 1.82v0.821h1.86v0.967z"/><path inkscape:connector-curvature="0" d="m534 222c0 2.7-1.57 4.98-4.45 4.98s-4.45-2.28-4.45-4.98 1.57-4.98 4.45-4.98 4.45 2.28 4.45 4.98zm-7.76 0c0 2.01 1.1 4.02 3.3 4.02 2.21 0 3.3-2.01 3.3-4.02s-1.1-4.02-3.3-4.02c-2.21 0-3.3 2.01-3.3 4.02z"/><path inkscape:connector-curvature="0" d="m537 217h1.06v2.21h0.037c0.584-1.52 1.86-2.41 3.56-2.34v1.15c-2.08-0.11-3.5 1.42-3.5 3.38v5.02h-1.15v-9.42z"/><path inkscape:connector-curvature="0" d="m544 217h1.15v1.62h0.036c0.42-1.13 1.68-1.9 3.01-1.9 2.65 0 3.45 1.39 3.45 3.63v6.06h-1.15v-5.88c0-1.62-0.529-2.85-2.39-2.85-1.82 0-2.92 1.39-2.96 3.23v5.49h-1.15v-9.42z"/><path inkscape:connector-curvature="0" d="m556 213h1.15v1.84h-1.15v-1.84zm0 3.61h1.15v9.42h-1.15v-9.42z"/><path inkscape:connector-curvature="0" d="m561 220c0.109-2.21 1.66-3.16 3.81-3.16 1.66 0 3.47 0.511 3.47 3.03v5c0 0.438 0.22 0.693 0.676 0.693 0.128 0 0.273-0.037 0.365-0.073v0.967c-0.256 0.055-0.438 0.073-0.749 0.073-1.17 0-1.35-0.657-1.35-1.64h-0.037c-0.803 1.22-1.62 1.92-3.43 1.92-1.73 0-3.16-0.858-3.16-2.76 0-2.65 2.57-2.74 5.06-3.03 0.949-0.11 1.48-0.237 1.48-1.28 0-1.55-1.11-1.93-2.46-1.93-1.42 0-2.48 0.657-2.52 2.19h-1.15zm6.13 1.39h-0.036c-0.146 0.274-0.657 0.365-0.968 0.42-1.95 0.347-4.38 0.329-4.38 2.17 0 1.15 1.02 1.86 2.1 1.86 1.75 0 3.3-1.11 3.28-2.96v-1.5z"/></g></g><g transform="translate(-209 -211)"><path inkscape:connector-curvature="0" fill="#839ec8" d="m230 266c3.12 14.2 17.4 23.2 30.3 20.7-9.82-2.76-18.1-11.4-20.6-22.8-2.52-11.5 1.38-22.7 9.14-29.4-12.8 3.1-22 17.2-18.9 31.5z"/><path inkscape:connector-curvature="0" fill="#005695" d="m311 313c14.3-25.2 5.06-57.4-17.4-70.8 10.8 17.1 11.6 40.7 0.125 61s-32.2 31.8-52.4 31.3c23 12.4 55.4 3.69 69.7-21.5z"/><path inkscape:connector-curvature="0" fill="#fab816" d="m260 234c-12 4.84-17.7 18.6-13.5 29.5 0.944-8.98 7.21-17.4 16.8-21.3 9.64-3.91 20-2.2 27 3.59-4.61-10.7-18.3-16.6-30.3-11.8z"/><path inkscape:connector-curvature="0" fill="#678bbb" d="m237 301c16.8 7.03 36.3-1.14 43-16.2-9.87 8.06-24.6 10.3-38.1 4.65-13.6-5.67-22.3-17.7-23.5-30.4-6 15.3 1.85 34.9 18.7 41.9z"/><path inkscape:connector-curvature="0" fill="#4979af" d="m259 323c21.4-4.41 35.2-25.7 31.6-45.1-4.33 14.7-17.4 26.9-34.7 30.4-17.3 3.56-34.1-2.49-43.9-14.3 4.42 19.2 25.5 33.3 46.9 28.9z"/></g><g transform="translate(-209 -211)"><g fill="#231f20"><path inkscape:connector-curvature="0" d="m372 328c-0.498-2.27-2.38-3.57-4.52-3.57-3.91 0-5.56 3.27-5.56 6.49 0 3.23 1.65 6.49 5.56 6.49 2.73 0 4.46-2.11 4.73-4.73h1.4c-0.393 3.62-2.69 5.93-6.13 5.93-4.65 0-6.97-3.66-6.97-7.69s2.32-7.69 6.97-7.69c2.78 0 5.56 1.67 5.93 4.77h-1.41z"/><path inkscape:connector-curvature="0" d="m375 331c0.125-2.5 1.89-3.58 4.32-3.58 1.88 0 3.93 0.58 3.93 3.43v5.66c0 0.498 0.249 0.783 0.764 0.783 0.148 0 0.312-0.041 0.412-0.082v1.1c-0.289 0.061-0.494 0.084-0.845 0.084-1.32 0-1.53-0.744-1.53-1.86h-0.04c-0.908 1.38-1.84 2.17-3.88 2.17-1.96 0-3.57-0.973-3.57-3.12 0-3 2.91-3.1 5.72-3.43 1.08-0.125 1.68-0.268 1.68-1.44 0-1.76-1.26-2.19-2.79-2.19-1.61 0-2.81 0.742-2.85 2.48h-1.3zm6.95 1.57h-0.042c-0.165 0.311-0.742 0.414-1.09 0.475-2.21 0.395-4.96 0.371-4.96 2.46 0 1.3 1.16 2.11 2.38 2.11 1.98 0 3.74-1.26 3.72-3.35v-1.69z"/><path inkscape:connector-curvature="0" d="m386 324h1.3v14.8h-1.3v-14.8z"/><path inkscape:connector-curvature="0" d="m390 324h1.3v2.09h-1.3v-2.09zm0 4.09h1.3v10.7h-1.3v-10.7z"/><path inkscape:connector-curvature="0" d="m398 329h-2.1v9.57h-1.3v-9.57h-1.82v-1.1h1.82v-0.969c-0.022-1.84 0.494-3.12 2.58-3.12 0.375 0 0.682 0.021 1.1 0.082v1.12c-0.35-0.061-0.639-0.102-0.945-0.102-1.45 0-1.41 0.908-1.43 2.06v0.928h2.1v1.1z"/><path inkscape:connector-curvature="0" d="m409 333c0 3.06-1.78 5.64-5.04 5.64-3.27 0-5.04-2.58-5.04-5.64s1.78-5.64 5.04-5.64c3.26 0.001 5.04 2.59 5.04 5.64zm-8.79 0c0 2.27 1.24 4.55 3.74 4.55s3.74-2.27 3.74-4.55c0-2.27-1.24-4.54-3.74-4.54-2.5 0.001-3.74 2.27-3.74 4.54z"/><path inkscape:connector-curvature="0" d="m411 328h1.2v2.5h0.047c0.66-1.72 2.11-2.73 4.03-2.64v1.3c-2.36-0.125-3.97 1.61-3.97 3.82v5.69h-1.3v-10.7z"/><path inkscape:connector-curvature="0" d="m417 328h1.3v1.84h0.039c0.475-1.28 1.9-2.15 3.41-2.15 3 0 3.91 1.57 3.91 4.12v6.86h-1.3v-6.66c0-1.84-0.602-3.22-2.71-3.22-2.07 0-3.31 1.57-3.35 3.66v6.22h-1.3v-10.7z"/><path inkscape:connector-curvature="0" d="m429 324h1.3v2.09h-1.3v-2.09zm0 4.09h1.3v10.7h-1.3v-10.7z"/><path inkscape:connector-curvature="0" d="m432 331c0.122-2.5 1.88-3.58 4.32-3.58 1.88 0 3.93 0.58 3.93 3.43v5.66c0 0.498 0.246 0.783 0.764 0.783 0.146 0 0.311-0.041 0.412-0.082v1.1c-0.288 0.061-0.495 0.084-0.844 0.084-1.32 0-1.53-0.744-1.53-1.86h-0.041c-0.91 1.38-1.84 2.17-3.89 2.17-1.96 0-3.58-0.973-3.58-3.12 0-3 2.92-3.1 5.72-3.43 1.08-0.125 1.68-0.268 1.68-1.44 0-1.76-1.26-2.19-2.79-2.19-1.61 0-2.81 0.742-2.85 2.48h-1.3zm6.94 1.57h-0.044c-0.164 0.311-0.741 0.414-1.1 0.475-2.21 0.395-4.96 0.371-4.96 2.46 0 1.3 1.16 2.11 2.38 2.11 1.98 0 3.74-1.26 3.72-3.35v-1.69z"/><path inkscape:connector-curvature="0" d="m449 324h5.1c4.44 0.104 6.78 2.54 6.78 7.38s-2.34 7.28-6.78 7.38h-5.1v-14.8zm1.4 13.6h3c4.24 0.02 6.08-1.78 6.08-6.18s-1.84-6.2-6.08-6.18h-3v12.4z"/><path inkscape:connector-curvature="0" d="m463 324h1.3v2.09h-1.3v-2.09zm0 4.09h1.3v10.7h-1.3v-10.7z"/><path inkscape:connector-curvature="0" d="m476 337c-0.016 3.18-1.24 5.12-4.73 5.12-2.12 0-4.23-0.951-4.42-3.22h1.3c0.291 1.57 1.67 2.13 3.12 2.13 2.4 0 3.43-1.43 3.43-4.03v-1.45h-0.044c-0.598 1.3-1.86 2.19-3.39 2.19-3.41 0-4.81-2.44-4.81-5.48 0-2.94 1.73-5.38 4.81-5.38 1.55 0 2.87 0.973 3.39 2.15h0.044v-1.84h1.3v9.8zm-1.3-4.59c0-2.09-0.971-4.42-3.43-4.42-2.48 0-3.51 2.21-3.51 4.42 0 2.15 1.12 4.23 3.51 4.23 2.25 0.001 3.43-2.06 3.43-4.23z"/><path inkscape:connector-curvature="0" d="m478 324h1.3v2.09h-1.3v-2.09zm0 4.09h1.3v10.7h-1.3v-10.7z"/><path inkscape:connector-curvature="0" d="m484 328h2.17v1.1h-2.17v7.19c0 0.846 0.124 1.34 1.06 1.4 0.375 0 0.743-0.021 1.12-0.064v1.12c-0.391 0-0.766 0.043-1.15 0.043-1.74 0-2.34-0.578-2.32-2.4v-7.3h-1.85v-1.1h1.85v-3.2h1.3v3.2z"/><path inkscape:connector-curvature="0" d="m488 331c0.125-2.5 1.88-3.58 4.32-3.58 1.88 0 3.93 0.58 3.93 3.43v5.66c0 0.498 0.246 0.783 0.764 0.783 0.143 0 0.308-0.041 0.412-0.082v1.1c-0.29 0.061-0.5 0.084-0.849 0.084-1.32 0-1.53-0.744-1.53-1.86h-0.042c-0.905 1.38-1.84 2.17-3.89 2.17-1.96 0-3.57-0.973-3.57-3.12 0-3 2.91-3.1 5.72-3.43 1.08-0.125 1.67-0.268 1.67-1.44 0-1.76-1.26-2.19-2.79-2.19-1.61 0-2.81 0.742-2.85 2.48h-1.3zm6.94 1.57h-0.039c-0.168 0.311-0.744 0.414-1.1 0.475-2.21 0.395-4.96 0.371-4.96 2.46 0 1.3 1.15 2.11 2.38 2.11 1.98 0 3.74-1.26 3.72-3.35v-1.69z"/><path inkscape:connector-curvature="0" d="m499 324h1.3v14.8h-1.3v-14.8z"/><path inkscape:connector-curvature="0" d="m509 324h1.41v13.6h8.27v1.2h-9.68v-14.8z"/><path inkscape:connector-curvature="0" d="m520 324h1.3v2.09h-1.3v-2.09zm0 4.09h1.3v10.7h-1.3v-10.7z"/><path inkscape:connector-curvature="0" d="m523 324h1.3v6.12h0.04c0.562-1.53 2.11-2.34 3.7-2.34 3.25 0 4.79 2.62 4.79 5.64s-1.55 5.64-4.79 5.64c-1.72 0-3.2-0.889-3.8-2.34h-0.042v2.03h-1.2v-14.8zm5.04 4.88c-2.77 0-3.74 2.33-3.74 4.54s0.971 4.55 3.74 4.55c2.48 0 3.49-2.34 3.49-4.55s-1.01-4.54-3.49-4.54z"/><path inkscape:connector-curvature="0" d="m535 328h1.2v2.5h0.042c0.661-1.72 2.11-2.73 4.03-2.64v1.3c-2.36-0.125-3.97 1.61-3.97 3.82v5.69h-1.3v-10.7z"/><path inkscape:connector-curvature="0" d="m542 331c0.125-2.5 1.88-3.58 4.32-3.58 1.88 0 3.93 0.58 3.93 3.43v5.66c0 0.498 0.251 0.783 0.762 0.783 0.148 0 0.312-0.041 0.416-0.082v1.1c-0.294 0.061-0.501 0.084-0.85 0.084-1.32 0-1.53-0.744-1.53-1.86h-0.037c-0.91 1.38-1.84 2.17-3.89 2.17-1.96 0-3.57-0.973-3.57-3.12 0-3 2.91-3.1 5.72-3.43 1.07-0.125 1.68-0.268 1.68-1.44 0-1.76-1.26-2.19-2.8-2.19-1.61 0-2.81 0.742-2.85 2.48h-1.3zm6.95 1.57h-0.046c-0.165 0.311-0.742 0.414-1.09 0.475-2.21 0.395-4.96 0.371-4.96 2.46 0 1.3 1.16 2.11 2.38 2.11 1.98 0 3.74-1.26 3.72-3.35v-1.69z"/><path inkscape:connector-curvature="0" d="m553 328h1.2v2.5h0.039c0.664-1.72 2.11-2.73 4.03-2.64v1.3c-2.36-0.125-3.97 1.61-3.97 3.82v5.69h-1.3v-10.7z"/><path inkscape:connector-curvature="0" d="m558 328h1.38l3.52 9.1 3.29-9.1h1.3l-4.63 12.3c-0.741 1.8-1.18 2.31-2.81 2.31-0.517-0.021-0.787-0.021-0.994-0.102v-1.1c0.312 0.062 0.599 0.104 0.892 0.104 1.16 0 1.43-0.68 1.86-1.67l0.457-1.22-4.26-10.6z"/></g><path inkscape:connector-curvature="0" d="m414 264c-3.12-11.4-9.17-14.5-17.5-14.5-15 0-22 13.4-22 27.4 0 18 8.87 30.1 21.8 30.1 9.76 0 14.7-5.36 19.8-15.8l3.51 0.677c-1.27 5.27-3.41 13.1-4.97 16.8-2.73 0.682-11.5 2.73-18.2 2.73-26 0-36.4-16.6-36.4-32.3 0-19.2 15.1-34 38.1-34 8.29 0 14.8 1.95 17.6 2.54 0.777 5.36 1.17 9.65 1.75 15.8l-3.51 0.587z"/><path inkscape:connector-curvature="0" d="m466 246c11.2 0 21.2 2.44 27.7 8.68 4.58 4.39 8.39 11.6 8.39 20.3 0 24-18.4 34.4-41.4 34.4h-24.7v-3.12c7.61-0.589 8.38-1.27 8.38-11.8v-33.5c0-10.5-0.775-11.2-7.6-11.8v-3.12h29.2zm-8.87 47.9c0 8.97 0.974 11.1 8 11.1 14 0 22.7-10.9 22.7-27.3 0-21-10.6-27.5-24.5-27.5-2.83 0-4.98 0.291-5.56 0.683-0.585 0.388-0.679 2.44-0.679 5.07v37.9z"/><path inkscape:connector-curvature="0" d="m542 294c0 7.12 0.386 9.27 2.44 10.1 1.66 0.683 4.29 0.781 7.32 0.781 3.8 0 8.29-0.588 10.5-3.02 1.56-1.86 3.12-4.97 4.68-9.65l3.51 0.684c-0.585 3.8-2.54 13.7-3.41 16.4h-46.5v-3.12c8-0.589 8.78-1.27 8.78-11.8v-33.5c0-10.5-0.777-11.2-8.19-11.8v-3.12h29.3v3.12c-7.6 0.584-8.39 1.26-8.39 11.8v33.2z"/></g></svg>
