<?xml version="1.0" encoding="UTF-8" standalone="no"?>
<!--
  - Copyright©2021, Regents of the University of California
  - http://creativecommons.org/licenses/BSD
  -->

<svg id="svg3336" xmlns:rdf="http://www.w3.org/1999/02/22-rdf-syntax-ns#" xmlns="http://www.w3.org/2000/svg" height="20.552pt" width="34.871pt" version="1.1" xmlns:cc="http://creativecommons.org/ns#" xmlns:dc="http://purl.org/dc/elements/1.1/" viewBox="0 0 34.870609 20.552437">
 <metadata id="metadata5540">
  <rdf:RDF>
   <cc:Work rdf:about="">
    <dc:format>image/svg+xml</dc:format>
    <dc:type rdf:resource="http://purl.org/dc/dcmitype/StillImage"/>
    <dc:title/>
   </cc:Work>
  </rdf:RDF>
 </metadata>
 <g>
  <path id="path4974" d="m27.161 3.3229c-0.28125-1.7344-1.7852-3.0586-3.6016-3.0586-1.5859 0-2.9336 1.0156-3.4336 2.4297h4.6484c0.86719 0 1.6797 0.23047 2.3867 0.62891" fill="#353a4a"/>
  <path id="path4976" d="m14.848 2.694c-0.5-1.4141-1.8516-2.4297-3.4375-2.4297-1.8125 0-3.3164 1.3242-3.5977 3.0586 0.70703-0.39844 1.5195-0.62891 2.3828-0.62891z" fill="#353a4a"/>
  <path id="path4978" d="m14.641 9.983h5.6914c1-2.8281 3.6992-4.8594 6.8711-4.8594 0.66406 0 1.3047 0.08984 1.9141 0.25391-0.4336-0.85938-1.1211-1.5781-1.9609-2.0547-0.70312-0.39844-1.5156-0.62891-2.3828-0.62891h-5.5703c0 0.94922-0.76954 1.7188-1.7188 1.7188-0.94922 0-1.7148-0.76953-1.7148-1.7188h-5.5742c-0.86328 0-1.6758 0.23047-2.3828 0.62891-0.83984 0.47656-1.5234 1.1953-1.957 2.0547 0.60937-0.16406 1.25-0.25391 1.9102-0.25391 3.1719 0 5.8711 2.0312 6.875 4.8594" fill="#3a4754"/>
 </g>
 <g fill="#353a4a">
  <path id="path4980" d="m20.332 9.983h-5.6914c0.26562 0.76172 0.41406 1.5781 0.41406 2.4297 0 0.85547-0.14844 1.6719-0.41406 2.4336h5.6914c-0.26953-0.76172-0.41797-1.5781-0.41797-2.4336 0-0.85156 0.14844-1.668 0.41797-2.4297"/>
  <path id="path4982" d="m7.766 6.3385c-3.3516 0-6.0742 2.7266-6.0742 6.0742 0 3.3516 2.7226 6.0781 6.0742 6.0781s6.0742-2.7266 6.0742-6.0781c0-3.3477-2.7226-6.0742-6.0742-6.0742m0 10.937c-2.6836 0-4.8594-2.1758-4.8594-4.8633 0-2.6836 2.1758-4.8594 4.8594-4.8594s4.8594 2.1758 4.8594 4.8594c0 2.6875-2.1758 4.8633-4.8594 4.8633"/>
  <path id="path4984" d="m27.207 6.3385c-3.3516 0-6.0781 2.7266-6.0781 6.0742 0 3.3516 2.7266 6.0781 6.0781 6.0781 3.3477 0 6.0742-2.7266 6.0742-6.0781 0-3.3477-2.7266-6.0742-6.0742-6.0742m0 10.937c-2.6836 0-4.8633-2.1758-4.8633-4.8633 0-2.6836 2.1797-4.8594 4.8633-4.8594s4.8594 2.1758 4.8594 4.8594c0 2.6875-2.1758 4.8633-4.8594 4.8633"/>
 </g>
 <g>
  <path id="path4986" d="m27.207 7.5533c-2.6875 0-4.8633 2.1758-4.8633 4.8594 0 2.6875 2.1758 4.8633 4.8633 4.8633 2.6836 0 4.8594-2.1758 4.8594-4.8633 0-2.6836-2.1758-4.8594-4.8594-4.8594" fill="#28a6b0"/>
  <path id="path4988" d="m7.766 7.5533c-2.6836 0-4.8594 2.1758-4.8594 4.8594 0 2.6875 2.1758 4.8633 4.8594 4.8633s4.8594-2.1758 4.8594-4.8633c0-2.6836-2.1758-4.8594-4.8594-4.8594" fill="#28a6b0"/>
  <path id="path4990" d="m14.641 9.983c-1.0039-2.8281-3.7031-4.8594-6.875-4.8594-0.66016 0-1.3008 0.08984-1.9102 0.25391-3.1016 0.84375-5.3789 3.6719-5.3789 7.0352 0 4.0273 3.2617 7.293 7.2891 7.293 3.1719 0 5.8711-2.0312 6.875-4.8594 0.26562-0.76172 0.41406-1.5781 0.41406-2.4336 0-0.85156-0.14844-1.668-0.41406-2.4297m-6.875 8.5078c-3.3477 0-6.0742-2.7266-6.0742-6.0781 0-3.3477 2.7266-6.0742 6.0742-6.0742s6.0742 2.7266 6.0742 6.0742c0 3.3516-2.7266 6.0781-6.0742 6.0781" fill="#353a4a"/>
  <path id="path4992" d="m29.118 5.3776c-0.60938-0.16406-1.25-0.25391-1.9102-0.25391-3.1758 0-5.875 2.0312-6.875 4.8594-0.26953 0.76172-0.41797 1.5781-0.41797 2.4297 0 0.85547 0.14844 1.6719 0.41797 2.4297 1 2.832 3.6992 4.8633 6.875 4.8633 4.0234 0 7.2891-3.2656 7.2891-7.293 0-3.3633-2.2812-6.1953-5.3789-7.0352m-1.9102 13.113c-3.3516 0-6.0781-2.7266-6.0781-6.0781 0-3.3477 2.7266-6.0742 6.0781-6.0742 3.3477 0 6.0742 2.7266 6.0742 6.0742 0 3.3516-2.7266 6.0781-6.0742 6.0781" fill="#353a4a"/>
  <path id="path4994" d="m5.9418 9.276c-1.0039 0-1.8203 0.81641-1.8203 1.8203 0 1.0078 0.81641 1.8242 1.8203 1.8242 1.0078 0 1.8242-0.81641 1.8242-1.8242 0-1.0039-0.81641-1.8203-1.8242-1.8203" fill="#97ccd1"/>
  <path id="path4996" d="m25.383 9.276c-1.0078 0-1.8242 0.81641-1.8242 1.8203 0 1.0078 0.81641 1.8242 1.8242 1.8242s1.8203-0.81641 1.8203-1.8242c0-1.0039-0.8125-1.8203-1.8203-1.8203" fill="#97ccd1"/>
 </g>
</svg>
