<!--
  - Copyright©2021, Regents of the University of California
  - http://creativecommons.org/licenses/BSD
  -->

<svg xmlns:rdf="http://www.w3.org/1999/02/22-rdf-syntax-ns#" xmlns="http://www.w3.org/2000/svg" version="1.1" xmlns:cc="http://creativecommons.org/ns#" xmlns:xlink="http://www.w3.org/1999/xlink" height="15" width="15" viewBox="0 0 128 128" xmlns:dc="http://purl.org/dc/elements/1.1/">
<defs>
<radialGradient id="d" gradientUnits="userSpaceOnUse" cy="382" cx="612" gradientTransform="matrix(-.0119 .514 -.556 -.0128 556 201)" r="120">
<stop stop-color="#2c7abb" offset="0"/>
<stop stop-color="#193c8a" offset="1"/>
</radialGradient>
<radialGradient id="c" gradientUnits="userSpaceOnUse" cy="658" cx="494" gradientTransform="matrix(-.00653 -.923 .990 -.00701 -219 1.07e3)" r="109">
<stop stop-color="#0f3ea8" offset="0"/>
<stop stop-color="#bbd4f1" offset="1"/>
</radialGradient>
<radialGradient id="b" gradientUnits="userSpaceOnUse" cy="487" cx="486" gradientTransform="matrix(-0.1 -.403 1.39 -.346 -201 888)" r="109">
<stop stop-color="#adc4e8" offset="0"/>
<stop stop-color="#deecfb" offset="1"/>
</radialGradient>
<radialGradient id="a" gradientUnits="userSpaceOnUse" cy="476" cx="328" gradientTransform="matrix(-.185 .530 -.706 -.246 751 478)" r="111">
<stop stop-color="#96c1db" offset="0"/>
<stop stop-color="#315caa" offset="1"/>
</radialGradient>
<linearGradient id="h" y2="448" gradientUnits="userSpaceOnUse" x2="599" gradientTransform="matrix(0.5 0 0 0.5 274 204)" y1="449" x1="642">
<stop stop-color="#6b85c0" offset="0"/>
<stop stop-color="#6b85c0" stop-opacity="0" offset="1"/>
</linearGradient>
<linearGradient id="g" y2="476" gradientUnits="userSpaceOnUse" x2="559" gradientTransform="matrix(0.5 0 0 0.5 274 204)" y1="476" x1="645">
<stop stop-color="#6b85c0" offset="0"/>
<stop stop-color="#6b85c0" stop-opacity="0" offset="1"/>
</linearGradient>
<linearGradient id="f" y2="636" gradientUnits="userSpaceOnUse" x2="300" gradientTransform="matrix(0.5 0 0 0.5 190 280)" y1="662" x1="374">
<stop stop-color="#6b85c0" offset="0"/>
<stop stop-color="#6b85c0" stop-opacity="0" offset="1"/>
</linearGradient>
<radialGradient id="e" gradientUnits="userSpaceOnUse" cy="481" cx="288" gradientTransform="matrix(5.13e-8 .836 -1.08 -.00000149 855 278)" r="77.9">
<stop stop-color="#0d93e9" offset="0"/>
<stop stop-color="#0f3ea8" offset="1"/>
</radialGradient>
<filter id="i" color-interpolation-filters="sRGB">
<feGaussianBlur stdDeviation="1.8336587"/>
</filter>
</defs>
<g transform="translate(-83.8 -65.5)">
<g transform="matrix(.989 0 0 1.02 -705 -432)">
<g transform="matrix(1.01 0 0 .996 265 -10.3)">
<g transform="translate(47.6 -9.07)">
<path opacity=".831" d="m487 448c-32.1 0-65.2 31.5-65.2 66.7v176l240-0.717 1.4-85.4 6.91-18.2-7.22-2.72 0.333-132-176-3.59z" transform="matrix(0.5 0 0 0.5 272 286)" filter="url(#i)" fill="#b3b3b3"/>
<g transform="translate(164 11.5)">
<path fill="url(#d)" d="m317 618v-87.1c0-17.6 16.5-33.3 32.6-33.3h87.6v120h-120z"/>
<path fill="#fff" d="m320 614v-82.7c0-17.2 15.9-31.4 30.9-31.7 27.7-0.466 83.2 0 83.2 0v114h-114z"/>
<path fill="url(#c)" d="m322 612v-79.1c0-16.3 14.9-30.3 29.6-30.3h79.7v109h-109z"/>
<path fill="url(#b)" d="m323 568c0-15.1-0.253-29.6-0.253-37.6 0-8.81 11.6-27.3 28-27.3 16.3 0 81.1-0.179 81.1-0.179v27.5c-28.2-0.336-84.7 8.08-109 37.6z"/>
<path opacity=".630" d="m326 612 27.9-78.6 83.7 29.1 0.125 26.3-8.71 23.2h-103z" fill="url(#a)"/>
<path fill="#fff" d="m322 613 28-77.3 90.9 31.3-17.7 46.2-101-0.253z"/>
<rect transform="matrix(.947 .322 -.340 .941 0 0)" ry="0" width="27.4" y="427" x="569" height="3.8" fill="url(#h)"/>
<rect transform="matrix(.947 .322 -.340 .941 0 0)" ry="0" width="45.2" y="441" x="551" height="3.89" fill="url(#g)"/>
<path fill="url(#f)" d="m339 597-1.22 3.66 30.4 10.8h12.1l-41.2-14.4z"/>
<path fill="#fff" d="m349 518h-14l14.6 66.6s14.5 0.177 14.3 0l9.27-40.3 9.29 40.2 13.2 0.177 17.3-66.7-22.9-0.0977 0.156 12.7 6.16 0.177-6.87 30.2-9.23-43h-13l-10.3 42.5-7.91-42.4z"/>
<path fill="url(#e)" d="m347 518h-14.2l14.6 66.5s14.5 0.177 14.3 0l9.27-40.3 9.29 40.2 13.2 0.177 17.5-66.6-23 0.0285 0.0928 12.5 6.16 0.177-6.87 30.2-9.23-42.9s-13-0.0631-13 0l-10.3 42.3-7.66-42.3z"/>
</g>
</g>
</g>
</g>
</g>
</svg>
